{"asset":{"version":"2.0","generator":"Blockbench 5.0.5 glTF exporter"},"scenes":[{"nodes":[23,25],"name":"blockbench_export"}],"scene":0,"nodes":[{"translation":[-0.2308022117512083,-0.8253844055503996,0.11426101614222817],"name":"K4","mesh":0},{"translation":[-0.2308022117512083,-0.8253844055503996,0.11426101614222817],"name":"K5","mesh":1},{"translation":[-0.2308022117512083,-0.8253844055503996,0.11426101614222817],"name":"K6","mesh":2},{"translation":[-0.2308022117512083,-0.8253844055503996,0.11426101614222817],"name":"K7","mesh":3},{"translation":[-0.2308022117512083,-0.8253844055503996,0.11426101614222817],"name":"cube","mesh":4},{"translation":[-0.2308022117512083,-0.8253844055503996,0.11426101614222817],"name":"3","mesh":5},{"translation":[-0.2308022117512083,-0.8253844055503996,0.11426101614222817],"name":"2","mesh":6},{"translation":[-0.1367223470870742,0.20251007127211595,0.05361348840564706],"name":"1","mesh":7},{"translation":[-0.2308022117512083,-0.8253844055503996,0.11426101614222817],"name":"cube_1","mesh":8},{"translation":[-0.2308022117512083,-0.8253844055503996,0.11426101614222817],"name":"cube_2","mesh":9},{"translation":[-0.2308022117512083,-0.8253844055503996,0.11426101614222817],"name":"cube_3","mesh":10},{"translation":[-0.2308022117512083,-0.8253844055503996,0.11426101614222817],"name":"1_1","mesh":11},{"translation":[-0.2308022117512083,-0.8253844055503996,0.11426101614222817],"name":"2_1","mesh":12},{"translation":[-0.2308022117512083,-0.8253844055503996,0.11426101614222817],"name":"3_1","mesh":13},{"translation":[-0.2308022117512083,-0.8253844055503996,0.11426101614222817],"name":"1_2","mesh":14},{"translation":[-0.2308022117512083,-0.8253844055503996,0.11426101614222817],"name":"2_2","mesh":15},{"translation":[-0.2308022117512083,-0.8253844055503996,0.11426101614222817],"name":"3_2","mesh":16},{"translation":[-0.10580220988856315,-0.3086375777972583,0.11426101986751835],"name":"Palm","mesh":17},{"translation":[-0.2308022117512083,-0.8253844055503996,0.11426101614222817],"name":"base","mesh":18},{"translation":[-0.2308022117512083,-0.8253844055503996,0.11426101614222817],"name":"1_3","mesh":19},{"translation":[-0.2308022117512083,-0.8253844055503996,0.11426101614222817],"name":"2_3","mesh":20},{"translation":[-0.2308022117512083,-0.8253844055503996,0.11426101614222817],"name":"3_3","mesh":21},{"translation":[0,1.0625000000000004,3.3306690738754696e-16],"name":"пальцы","children":[0,1,2,3,4,5,6,7,8,9,10,11,12,13,14,15,16,17,18,19,20,21]},{"rotation":[-0.6427876096865393,0,0,0.766044443118978],"translation":[1.1683022117512083,0.8253844055503992,-0.1142610161422285],"name":"правая лапа","children":[22]},{"translation":[-1.0303996586629154e-17,0,2.817295269255567e-17],"name":"sphere","mesh":22},{"translation":[1.5247306341480356e-17,2.125,-4.246811757729688e-17],"name":"башка","children":[24]}],"bufferViews":[{"buffer":0,"byteOffset":0,"byteLength":432,"target":34962,"byteStride":12},{"buffer":0,"byteOffset":432,"byteLength":432,"target":34962,"byteStride":12},{"buffer":0,"byteOffset":864,"byteLength":288,"target":34962,"byteStride":8},{"buffer":0,"byteOffset":1152,"byteLength":72,"target":34963},{"buffer":0,"byteOffset":1224,"byteLength":432,"target":34962,"byteStride":12},{"buffer":0,"byteOffset":1656,"byteLength":432,"target":34962,"byteStride":12},{"buffer":0,"byteOffset":2088,"byteLength":288,"target":34962,"byteStride":8},{"buffer":0,"byteOffset":2376,"byteLength":72,"target":34963},{"buffer":0,"byteOffset":2448,"byteLength":432,"target":34962,"byteStride":12},{"buffer":0,"byteOffset":2880,"byteLength":432,"target":34962,"byteStride":12},{"buffer":0,"byteOffset":3312,"byteLength":288,"target":34962,"byteStride":8},{"buffer":0,"byteOffset":3600,"byteLength":72,"target":34963},{"buffer":0,"byteOffset":3672,"byteLength":432,"target":34962,"byteStride":12},{"buffer":0,"byteOffset":4104,"byteLength":432,"target":34962,"byteStride":12},{"buffer":0,"byteOffset":4536,"byteLength":288,"target":34962,"byteStride":8},{"buffer":0,"byteOffset":4824,"byteLength":72,"target":34963},{"buffer":0,"byteOffset":4896,"byteLength":432,"target":34962,"byteStride":12},{"buffer":0,"byteOffset":5328,"byteLength":432,"target":34962,"byteStride":12},{"buffer":0,"byteOffset":5760,"byteLength":288,"target":34962,"byteStride":8},{"buffer":0,"byteOffset":6048,"byteLength":72,"target":34963},{"buffer":0,"byteOffset":6120,"byteLength":432,"target":34962,"byteStride":12},{"buffer":0,"byteOffset":6552,"byteLength":432,"target":34962,"byteStride":12},{"buffer":0,"byteOffset":6984,"byteLength":288,"target":34962,"byteStride":8},{"buffer":0,"byteOffset":7272,"byteLength":72,"target":34963},{"buffer":0,"byteOffset":7344,"byteLength":432,"target":34962,"byteStride":12},{"buffer":0,"byteOffset":7776,"byteLength":432,"target":34962,"byteStride":12},{"buffer":0,"byteOffset":8208,"byteLength":288,"target":34962,"byteStride":8},{"buffer":0,"byteOffset":8496,"byteLength":72,"target":34963},{"buffer":0,"byteOffset":8568,"byteLength":432,"target":34962,"byteStride":12},{"buffer":0,"byteOffset":9000,"byteLength":432,"target":34962,"byteStride":12},{"buffer":0,"byteOffset":9432,"byteLength":288,"target":34962,"byteStride":8},{"buffer":0,"byteOffset":9720,"byteLength":72,"target":34963},{"buffer":0,"byteOffset":9792,"byteLength":432,"target":34962,"byteStride":12},{"buffer":0,"byteOffset":10224,"byteLength":432,"target":34962,"byteStride":12},{"buffer":0,"byteOffset":10656,"byteLength":288,"target":34962,"byteStride":8},{"buffer":0,"byteOffset":10944,"byteLength":72,"target":34963},{"buffer":0,"byteOffset":11016,"byteLength":432,"target":34962,"byteStride":12},{"buffer":0,"byteOffset":11448,"byteLength":432,"target":34962,"byteStride":12},{"buffer":0,"byteOffset":11880,"byteLength":288,"target":34962,"byteStride":8},{"buffer":0,"byteOffset":12168,"byteLength":72,"target":34963},{"buffer":0,"byteOffset":12240,"byteLength":432,"target":34962,"byteStride":12},{"buffer":0,"byteOffset":12672,"byteLength":432,"target":34962,"byteStride":12},{"buffer":0,"byteOffset":13104,"byteLength":288,"target":34962,"byteStride":8},{"buffer":0,"byteOffset":13392,"byteLength":72,"target":34963},{"buffer":0,"byteOffset":13464,"byteLength":432,"target":34962,"byteStride":12},{"buffer":0,"byteOffset":13896,"byteLength":432,"target":34962,"byteStride":12},{"buffer":0,"byteOffset":14328,"byteLength":288,"target":34962,"byteStride":8},{"buffer":0,"byteOffset":14616,"byteLength":72,"target":34963},{"buffer":0,"byteOffset":14688,"byteLength":432,"target":34962,"byteStride":12},{"buffer":0,"byteOffset":15120,"byteLength":432,"target":34962,"byteStride":12},{"buffer":0,"byteOffset":15552,"byteLength":288,"target":34962,"byteStride":8},{"buffer":0,"byteOffset":15840,"byteLength":72,"target":34963},{"buffer":0,"byteOffset":15912,"byteLength":432,"target":34962,"byteStride":12},{"buffer":0,"byteOffset":16344,"byteLength":432,"target":34962,"byteStride":12},{"buffer":0,"byteOffset":16776,"byteLength":288,"target":34962,"byteStride":8},{"buffer":0,"byteOffset":17064,"byteLength":72,"target":34963},{"buffer":0,"byteOffset":17136,"byteLength":432,"target":34962,"byteStride":12},{"buffer":0,"byteOffset":17568,"byteLength":432,"target":34962,"byteStride":12},{"buffer":0,"byteOffset":18000,"byteLength":288,"target":34962,"byteStride":8},{"buffer":0,"byteOffset":18288,"byteLength":72,"target":34963},{"buffer":0,"byteOffset":18360,"byteLength":432,"target":34962,"byteStride":12},{"buffer":0,"byteOffset":18792,"byteLength":432,"target":34962,"byteStride":12},{"buffer":0,"byteOffset":19224,"byteLength":288,"target":34962,"byteStride":8},{"buffer":0,"byteOffset":19512,"byteLength":72,"target":34963},{"buffer":0,"byteOffset":19584,"byteLength":432,"target":34962,"byteStride":12},{"buffer":0,"byteOffset":20016,"byteLength":432,"target":34962,"byteStride":12},{"buffer":0,"byteOffset":20448,"byteLength":288,"target":34962,"byteStride":8},{"buffer":0,"byteOffset":20736,"byteLength":72,"target":34963},{"buffer":0,"byteOffset":20808,"byteLength":432,"target":34962,"byteStride":12},{"buffer":0,"byteOffset":21240,"byteLength":432,"target":34962,"byteStride":12},{"buffer":0,"byteOffset":21672,"byteLength":288,"target":34962,"byteStride":8},{"buffer":0,"byteOffset":21960,"byteLength":72,"target":34963},{"buffer":0,"byteOffset":22032,"byteLength":432,"target":34962,"byteStride":12},{"buffer":0,"byteOffset":22464,"byteLength":432,"target":34962,"byteStride":12},{"buffer":0,"byteOffset":22896,"byteLength":288,"target":34962,"byteStride":8},{"buffer":0,"byteOffset":23184,"byteLength":72,"target":34963},{"buffer":0,"byteOffset":23256,"byteLength":432,"target":34962,"byteStride":12},{"buffer":0,"byteOffset":23688,"byteLength":432,"target":34962,"byteStride":12},{"buffer":0,"byteOffset":24120,"byteLength":288,"target":34962,"byteStride":8},{"buffer":0,"byteOffset":24408,"byteLength":72,"target":34963},{"buffer":0,"byteOffset":24480,"byteLength":432,"target":34962,"byteStride":12},{"buffer":0,"byteOffset":24912,"byteLength":432,"target":34962,"byteStride":12},{"buffer":0,"byteOffset":25344,"byteLength":288,"target":34962,"byteStride":8},{"buffer":0,"byteOffset":25632,"byteLength":72,"target":34963},{"buffer":0,"byteOffset":25704,"byteLength":432,"target":34962,"byteStride":12},{"buffer":0,"byteOffset":26136,"byteLength":432,"target":34962,"byteStride":12},{"buffer":0,"byteOffset":26568,"byteLength":288,"target":34962,"byteStride":8},{"buffer":0,"byteOffset":26856,"byteLength":72,"target":34963},{"buffer":0,"byteOffset":26928,"byteLength":13248,"target":34962,"byteStride":12},{"buffer":0,"byteOffset":40176,"byteLength":13248,"target":34962,"byteStride":12},{"buffer":0,"byteOffset":53424,"byteLength":8832,"target":34962,"byteStride":8},{"buffer":0,"byteOffset":62256,"byteLength":3168,"target":34963},{"buffer":0,"byteOffset":65424,"byteLength":12},{"buffer":0,"byteOffset":65436,"byteLength":36},{"buffer":0,"byteOffset":65472,"byteLength":12},{"buffer":0,"byteOffset":65484,"byteLength":48},{"buffer":0,"byteOffset":65532,"byteLength":8},{"buffer":0,"byteOffset":65540,"byteLength":24},{"buffer":0,"byteOffset":65564,"byteLength":8},{"buffer":0,"byteOffset":65572,"byteLength":24},{"buffer":0,"byteOffset":65596,"byteLength":8},{"buffer":0,"byteOffset":65604,"byteLength":32},{"buffer":0,"byteOffset":65636,"byteLength":8},{"buffer":0,"byteOffset":65644,"byteLength":24}],"buffers":[{"byteLength":65668,"uri":"data:application/octet-stream;base64,"}],"accessors":[{"bufferView":0,"componentType":5126,"count":36,"max":[0.5615820288658142,0.709804117679596,0.11084355413913727],"min":[0.38092538714408875,0.521897554397583,-0.03396344184875488],"type":"VEC3"},{"bufferView":1,"componentType":5126,"count":36,"max":[0.8660253882408142,0.8528685569763184,0.9848077297210693],"min":[-0.8660253882408142,-0.8528685569763184,-0.9848077297210693],"type":"VEC3"},{"bufferView":2,"componentType":5126,"count":36,"max":[0.546630859375,0.062255859375],"min":[0.422119140625,0.000244140625],"type":"VEC2"},{"bufferView":3,"componentType":5123,"count":36,"max":[35],"min":[0],"type":"SCALAR"},{"bufferView":4,"componentType":5126,"count":36,"max":[0.42626556754112244,0.787929117679596,0.11084355413913727],"min":[0.24560891091823578,0.600022554397583,-0.03396344184875488],"type":"VEC3"},{"bufferView":5,"componentType":5126,"count":36,"max":[0.8660253882408142,0.8528685569763184,0.9848077297210693],"min":[-0.8660253882408142,-0.8528685569763184,-0.9848077297210693],"type":"VEC3"},{"bufferView":6,"componentType":5126,"count":36,"max":[0.546630859375,0.062255859375],"min":[0.422119140625,0.000244140625],"type":"VEC2"},{"bufferView":7,"componentType":5123,"count":36,"max":[35],"min":[0],"type":"SCALAR"},{"bufferView":8,"componentType":5126,"count":36,"max":[0.26388582587242126,0.881679117679596,0.11084355413913727],"min":[0.08322913944721222,0.693772554397583,-0.03396344184875488],"type":"VEC3"},{"bufferView":9,"componentType":5126,"count":36,"max":[0.8660253882408142,0.8528685569763184,0.9848077297210693],"min":[-0.8660253882408142,-0.8528685569763184,-0.9848077297210693],"type":"VEC3"},{"bufferView":10,"componentType":5126,"count":36,"max":[0.546630859375,0.062255859375],"min":[0.422119140625,0.000244140625],"type":"VEC2"},{"bufferView":11,"componentType":5123,"count":36,"max":[35],"min":[0],"type":"SCALAR"},{"bufferView":12,"componentType":5126,"count":36,"max":[0.1285693347454071,0.959804117679596,0.11084355413913727],"min":[-0.05208732932806015,0.771897554397583,-0.03396344184875488],"type":"VEC3"},{"bufferView":13,"componentType":5126,"count":36,"max":[0.8660253882408142,0.8528685569763184,0.9848077297210693],"min":[-0.8660253882408142,-0.8528685569763184,-0.9848077297210693],"type":"VEC3"},{"bufferView":14,"componentType":5126,"count":36,"max":[0.546630859375,0.062255859375],"min":[0.422119140625,0.000244140625],"type":"VEC2"},{"bufferView":15,"componentType":5123,"count":36,"max":[35],"min":[0],"type":"SCALAR"},{"bufferView":16,"componentType":5126,"count":36,"max":[0.5756434798240662,0.9845967888832092,0.08908376097679138],"min":[-0.08868236839771271,0.4593256115913391,-0.15638674795627594],"type":"VEC3"},{"bufferView":17,"componentType":5126,"count":36,"max":[0.8660253882408142,0.8001031279563904,0.9238795042037964],"min":[-0.8660253882408142,-0.8001031279563904,-0.9238795042037964],"type":"VEC3"},{"bufferView":18,"componentType":5126,"count":36,"max":[0.406005859375,0.249755859375],"min":[0.000244140625,0.156494140625],"type":"VEC2"},{"bufferView":19,"componentType":5123,"count":36,"max":[35],"min":[0],"type":"SCALAR"},{"bufferView":20,"componentType":5126,"count":36,"max":[0.2704375982284546,1.4507964849472046,-0.000010733311682997737],"min":[0.07995693385601044,1.2242110967636108,-0.1757838875055313],"type":"VEC3"},{"bufferView":21,"componentType":5126,"count":36,"max":[0.9453114867210388,0.9579510688781738,0.967624843120575],"min":[-0.9453114867210388,-0.9579510688781738,-0.967624843120575],"type":"VEC3"},{"bufferView":22,"componentType":5126,"count":36,"max":[0.59375,0.546875],"min":[0.46875,0.15625],"type":"VEC2"},{"bufferView":23,"componentType":5123,"count":36,"max":[35],"min":[0],"type":"SCALAR"},{"bufferView":24,"componentType":5126,"count":36,"max":[0.22623561322689056,1.2706849575042725,0.00944626983255148],"min":[0.05055403709411621,1.1135470867156982,-0.1468818634748459],"type":"VEC3"},{"bufferView":25,"componentType":5126,"count":36,"max":[0.9453114867210388,0.9640048742294312,0.978333055973053],"min":[-0.9453114867210388,-0.9640048742294312,-0.978333055973053],"type":"VEC3"},{"bufferView":26,"componentType":5126,"count":36,"max":[0.59375,0.625],"min":[0.234375,0.5625],"type":"VEC2"},{"bufferView":27,"componentType":5123,"count":36,"max":[35],"min":[0],"type":"SCALAR"},{"bufferView":28,"componentType":5126,"count":36,"max":[0.10006117075681686,0.12307226657867432,0.0774785503745079],"min":[-0.10006117075681686,-0.12307226657867432,-0.0774785503745079],"type":"VEC3"},{"bufferView":29,"componentType":5126,"count":36,"max":[0.9453114867210388,0.9642812013626099,0.9808979630470276],"min":[-0.9453114867210388,-0.9642812013626099,-0.9808979630470276],"type":"VEC3"},{"bufferView":30,"componentType":5126,"count":36,"max":[0.59375,0.59375],"min":[0,0.15625],"type":"VEC2"},{"bufferView":31,"componentType":5123,"count":36,"max":[35],"min":[0],"type":"SCALAR"},{"bufferView":32,"componentType":5126,"count":36,"max":[0.40414413809776306,1.0939886569976807,0.014623088762164116],"min":[0.14205268025398254,0.765032947063446,-0.20849156379699707],"type":"VEC3"},{"bufferView":33,"componentType":5126,"count":36,"max":[0.8660253882408142,0.8001031279563904,0.9238795042037964],"min":[-0.8660253882408142,-0.8001031279563904,-0.9238795042037964],"type":"VEC3"},{"bufferView":34,"componentType":5126,"count":36,"max":[0.59375,0.59375],"min":[0.140625,0.15625],"type":"VEC2"},{"bufferView":35,"componentType":5123,"count":36,"max":[35],"min":[0],"type":"SCALAR"},{"bufferView":36,"componentType":5126,"count":36,"max":[0.429919570684433,1.1386330127716064,-0.09156399220228195],"min":[0.23386791348457336,0.9240615963935852,-0.3079741597175598],"type":"VEC3"},{"bufferView":37,"componentType":5126,"count":36,"max":[0.8660253882408142,0.825943112373352,0.9537169337272644],"min":[-0.8660253882408142,-0.825943112373352,-0.9537169337272644],"type":"VEC3"},{"bufferView":38,"componentType":5126,"count":36,"max":[0.640625,0.640625],"min":[0.09375,0.09375],"type":"VEC2"},{"bufferView":39,"componentType":5123,"count":36,"max":[35],"min":[0],"type":"SCALAR"},{"bufferView":40,"componentType":5126,"count":36,"max":[0.42865440249443054,1.136441707611084,-0.19919326901435852],"min":[0.21731743216514587,0.8953952789306641,-0.42449161410331726],"type":"VEC3"},{"bufferView":41,"componentType":5126,"count":36,"max":[0.8660253882408142,0.730398416519165,0.8433914184570312],"min":[-0.8660253882408142,-0.730398416519165,-0.8433914184570312],"type":"VEC3"},{"bufferView":42,"componentType":5126,"count":36,"max":[0.640625,0.5625],"min":[0.375,0],"type":"VEC2"},{"bufferView":43,"componentType":5123,"count":36,"max":[35],"min":[0],"type":"SCALAR"},{"bufferView":44,"componentType":5126,"count":36,"max":[0.532773494720459,0.961061954498291,0.013124343007802963],"min":[0.29630574584007263,0.6857042908668518,-0.17387288808822632],"type":"VEC3"},{"bufferView":45,"componentType":5126,"count":36,"max":[0.8450515866279602,0.8034577965736389,0.9536852240562439],"min":[-0.8450515866279602,-0.8034577965736389,-0.9536852240562439],"type":"VEC3"},{"bufferView":46,"componentType":5126,"count":36,"max":[0.59375,0.515625],"min":[0.234375,0.28125],"type":"VEC2"},{"bufferView":47,"componentType":5123,"count":36,"max":[35],"min":[0],"type":"SCALAR"},{"bufferView":48,"componentType":5126,"count":36,"max":[0.5586686134338379,0.9963911175727844,-0.05134573206305504],"min":[0.3604383170604706,0.787811279296875,-0.2668903172016144],"type":"VEC3"},{"bufferView":49,"componentType":5126,"count":36,"max":[0.8450515866279602,0.818609356880188,0.965704083442688],"min":[-0.8450515866279602,-0.818609356880188,-0.965704083442688],"type":"VEC3"},{"bufferView":50,"componentType":5126,"count":36,"max":[0.640625,0.609375],"min":[0.140625,0.0625],"type":"VEC2"},{"bufferView":51,"componentType":5123,"count":36,"max":[35],"min":[0],"type":"SCALAR"},{"bufferView":52,"componentType":5126,"count":36,"max":[0.5572167038917542,0.9942085146903992,-0.16167478263378143],"min":[0.34268978238105774,0.7523725032806396,-0.3890267014503479],"type":"VEC3"},{"bufferView":53,"componentType":5126,"count":36,"max":[0.8450515866279602,0.7081701159477234,0.8434547185897827],"min":[-0.8450515866279602,-0.7081701159477234,-0.8434547185897827],"type":"VEC3"},{"bufferView":54,"componentType":5126,"count":36,"max":[0.640625,0.609375],"min":[0,0],"type":"VEC2"},{"bufferView":55,"componentType":5123,"count":36,"max":[35],"min":[0],"type":"SCALAR"},{"bufferView":56,"componentType":5126,"count":36,"max":[0.6339128613471985,0.8173145651817322,0.022518586367368698],"min":[0.4154977798461914,0.5826666951179504,-0.17266947031021118],"type":"VEC3"},{"bufferView":57,"componentType":5126,"count":36,"max":[0.7983211874961853,0.6593858003616333,0.8439599275588989],"min":[-0.7983211874961853,-0.6593858003616333,-0.8439599275588989],"type":"VEC3"},{"bufferView":58,"componentType":5126,"count":36,"max":[0.59375,0.546875],"min":[0.09375,0.1875],"type":"VEC2"},{"bufferView":59,"componentType":5123,"count":36,"max":[35],"min":[0],"type":"SCALAR"},{"bufferView":60,"componentType":5126,"count":36,"max":[0.6598969101905823,0.8420518040657043,-0.06004446744918823],"min":[0.4624946713447571,0.64393550157547,-0.22314153611660004],"type":"VEC3"},{"bufferView":61,"componentType":5126,"count":36,"max":[0.7983211874961853,0.7707051038742065,0.9516125321388245],"min":[-0.7983211874961853,-0.7707051038742065,-0.9516125321388245],"type":"VEC3"},{"bufferView":62,"componentType":5126,"count":36,"max":[0.640625,0.65625],"min":[0,0.515625],"type":"VEC2"},{"bufferView":63,"componentType":5123,"count":36,"max":[35],"min":[0],"type":"SCALAR"},{"bufferView":64,"componentType":5126,"count":36,"max":[0.6580882668495178,0.8399035930633545,-0.12348200380802155],"min":[0.4610225558280945,0.6304216384887695,-0.2954505383968353],"type":"VEC3"},{"bufferView":65,"componentType":5126,"count":36,"max":[0.7983211874961853,0.7128461003303528,0.9064505696296692],"min":[-0.7983211874961853,-0.7128461003303528,-0.9064505696296692],"type":"VEC3"},{"bufferView":66,"componentType":5126,"count":36,"max":[0.640625,0.640625],"min":[0.421875,0.328125],"type":"VEC2"},{"bufferView":67,"componentType":5123,"count":36,"max":[35],"min":[0],"type":"SCALAR"},{"bufferView":68,"componentType":5126,"count":36,"max":[0.3648098409175873,0.3190566599369049,0.09406250715255737],"min":[-0.3648098409175873,-0.3190566599369049,-0.09406249970197678],"type":"VEC3"},{"bufferView":69,"componentType":5126,"count":36,"max":[0.8660253882408142,0.8660253882408142,1],"min":[-0.8660253882408142,-0.8660253882408142,-1],"type":"VEC3"},{"bufferView":70,"componentType":5126,"count":36,"max":[0.406005859375,0.140380859375],"min":[0.000244140625,0.000244140625],"type":"VEC2"},{"bufferView":71,"componentType":5123,"count":36,"max":[35],"min":[0],"type":"SCALAR"},{"bufferView":72,"componentType":5126,"count":36,"max":[0.12642325460910797,0.7146993279457092,0.1333918571472168],"min":[-0.3088177740573883,0.3908388316631317,-0.2501366138458252],"type":"VEC3"},{"bufferView":73,"componentType":5126,"count":36,"max":[0.8257375955581665,0.987185001373291,0.8213774561882019],"min":[-0.8257375955581665,-0.987185001373291,-0.8213774561882019],"type":"VEC3"},{"bufferView":74,"componentType":5126,"count":36,"max":[0.218505859375,0.390380859375],"min":[0.000244140625,0.265869140625],"type":"VEC2"},{"bufferView":75,"componentType":5123,"count":36,"max":[35],"min":[0],"type":"SCALAR"},{"bufferView":76,"componentType":5126,"count":36,"max":[-0.08892013132572174,0.7687904238700867,-0.04977642372250557],"min":[-0.29170721769332886,0.5362557172775269,-0.27981361746788025],"type":"VEC3"},{"bufferView":77,"componentType":5126,"count":36,"max":[0.7786356806755066,0.7743285894393921,0.699757993221283],"min":[-0.7786356806755066,-0.7743285894393921,-0.699757993221283],"type":"VEC3"},{"bufferView":78,"componentType":5126,"count":36,"max":[0.546630859375,0.140380859375],"min":[0.422119140625,0.078369140625],"type":"VEC2"},{"bufferView":79,"componentType":5123,"count":36,"max":[35],"min":[0],"type":"SCALAR"},{"bufferView":80,"componentType":5126,"count":36,"max":[-0.08858613669872284,0.8390712141990662,-0.14762547612190247],"min":[-0.29037097096443176,0.6075078248977661,-0.3888669013977051],"type":"VEC3"},{"bufferView":81,"componentType":5126,"count":36,"max":[0.779928982257843,0.7649969458580017,0.9149156808853149],"min":[-0.779928982257843,-0.7649969458580017,-0.9149156808853149],"type":"VEC3"},{"bufferView":82,"componentType":5126,"count":36,"max":[0.359130859375,0.343505859375],"min":[0.234619140625,0.265869140625],"type":"VEC2"},{"bufferView":83,"componentType":5123,"count":36,"max":[35],"min":[0],"type":"SCALAR"},{"bufferView":84,"componentType":5126,"count":36,"max":[-0.02501033991575241,0.8401141166687012,-0.24884112179279327],"min":[-0.26295915246009827,0.6129884719848633,-0.5024616122245789],"type":"VEC3"},{"bufferView":85,"componentType":5126,"count":36,"max":[0.7795248031616211,0.7744478583335876,0.7619276642799377],"min":[-0.7795248031616211,-0.7744478583335876,-0.7619276642799377],"type":"VEC3"},{"bufferView":86,"componentType":5126,"count":36,"max":[0.359130859375,0.437255859375],"min":[0.234619140625,0.359619140625],"type":"VEC2"},{"bufferView":87,"componentType":5123,"count":36,"max":[35],"min":[0],"type":"SCALAR"},{"bufferView":88,"componentType":5126,"count":1104,"max":[1,1,1],"min":[-1,-1,-1],"type":"VEC3"},{"bufferView":89,"componentType":5126,"count":1104,"max":[0.9914448857307434,0.9914448857307434,0.9914448857307434],"min":[-0.9914448857307434,-0.9914448857307434,-0.9914448857307434],"type":"VEC3"},{"bufferView":90,"componentType":5126,"count":1104,"max":[0.13165000081062317,0.1327298879623413],"min":[0,0],"type":"VEC2"},{"bufferView":91,"componentType":5123,"count":1584,"max":[1103],"min":[0],"type":"SCALAR"},{"bufferView":92,"componentType":5126,"count":3,"max":[1.5833333730697632],"min":[0],"type":"SCALAR"},{"bufferView":93,"componentType":5126,"count":3,"max":[0,1.0625,3.3306690738754696e-16],"min":[0,1.0625,-5.625],"type":"VEC3"},{"bufferView":94,"componentType":5126,"count":3,"max":[1.5],"min":[0],"type":"SCALAR"},{"bufferView":95,"componentType":5126,"count":3,"max":[0,0.7071067690849304,0,1],"min":[0,0,0,0.7071067690849304],"type":"VEC4"},{"bufferView":96,"componentType":5126,"count":2,"max":[1],"min":[0],"type":"SCALAR"},{"bufferView":97,"componentType":5126,"count":2,"max":[4.375,2.125,-4.2468117701684933e-17],"min":[1.5247306080265427e-17,2.125,-4.2468117701684933e-17],"type":"VEC3"},{"bufferView":98,"componentType":5126,"count":2,"max":[0.5],"min":[0],"type":"SCALAR"},{"bufferView":99,"componentType":5126,"count":2,"max":[0,1.0625,3.3306690738754696e-16],"min":[-1.4375,-4.1875,-8.625],"type":"VEC3"},{"bufferView":100,"componentType":5126,"count":2,"max":[0.5],"min":[0],"type":"SCALAR"},{"bufferView":101,"componentType":5126,"count":2,"max":[0,0.7071067690849304,0,1],"min":[0,0,0,0.7071067690849304],"type":"VEC4"},{"bufferView":102,"componentType":5126,"count":2,"max":[1.5],"min":[0],"type":"SCALAR"},{"bufferView":103,"componentType":5126,"count":2,"max":[1.5247306080265427e-17,2.125,-4.2468117701684933e-17],"min":[-7.25,2.125,-4.2468117701684933e-17],"type":"VEC3"}],"materials":[{"pbrMetallicRoughness":{"metallicFactor":0,"roughnessFactor":1},"alphaMode":"MASK","alphaCutoff":0.05,"doubleSided":true},{"pbrMetallicRoughness":{"metallicFactor":0,"roughnessFactor":1},"alphaMode":"MASK","alphaCutoff":0.05,"doubleSided":true}],"meshes":[{"primitives":[{"mode":4,"attributes":{"POSITION":0,"NORMAL":1,"TEXCOORD_0":2},"indices":3,"material":0}]},{"primitives":[{"mode":4,"attributes":{"POSITION":4,"NORMAL":5,"TEXCOORD_0":6},"indices":7,"material":0}]},{"primitives":[{"mode":4,"attributes":{"POSITION":8,"NORMAL":9,"TEXCOORD_0":10},"indices":11,"material":0}]},{"primitives":[{"mode":4,"attributes":{"POSITION":12,"NORMAL":13,"TEXCOORD_0":14},"indices":15,"material":0}]},{"primitives":[{"mode":4,"attributes":{"POSITION":16,"NORMAL":17,"TEXCOORD_0":18},"indices":19,"material":0}]},{"primitives":[{"mode":4,"attributes":{"POSITION":20,"NORMAL":21,"TEXCOORD_0":22},"indices":23,"material":0}]},{"primitives":[{"mode":4,"attributes":{"POSITION":24,"NORMAL":25,"TEXCOORD_0":26},"indices":27,"material":0}]},{"primitives":[{"mode":4,"attributes":{"POSITION":28,"NORMAL":29,"TEXCOORD_0":30},"indices":31,"material":0}]},{"primitives":[{"mode":4,"attributes":{"POSITION":32,"NORMAL":33,"TEXCOORD_0":34},"indices":35,"material":0}]},{"primitives":[{"mode":4,"attributes":{"POSITION":36,"NORMAL":37,"TEXCOORD_0":38},"indices":39,"material":0}]},{"primitives":[{"mode":4,"attributes":{"POSITION":40,"NORMAL":41,"TEXCOORD_0":42},"indices":43,"material":0}]},{"primitives":[{"mode":4,"attributes":{"POSITION":44,"NORMAL":45,"TEXCOORD_0":46},"indices":47,"material":0}]},{"primitives":[{"mode":4,"attributes":{"POSITION":48,"NORMAL":49,"TEXCOORD_0":50},"indices":51,"material":0}]},{"primitives":[{"mode":4,"attributes":{"POSITION":52,"NORMAL":53,"TEXCOORD_0":54},"indices":55,"material":0}]},{"primitives":[{"mode":4,"attributes":{"POSITION":56,"NORMAL":57,"TEXCOORD_0":58},"indices":59,"material":0}]},{"primitives":[{"mode":4,"attributes":{"POSITION":60,"NORMAL":61,"TEXCOORD_0":62},"indices":63,"material":0}]},{"primitives":[{"mode":4,"attributes":{"POSITION":64,"NORMAL":65,"TEXCOORD_0":66},"indices":67,"material":0}]},{"primitives":[{"mode":4,"attributes":{"POSITION":68,"NORMAL":69,"TEXCOORD_0":70},"indices":71,"material":0}]},{"primitives":[{"mode":4,"attributes":{"POSITION":72,"NORMAL":73,"TEXCOORD_0":74},"indices":75,"material":0}]},{"primitives":[{"mode":4,"attributes":{"POSITION":76,"NORMAL":77,"TEXCOORD_0":78},"indices":79,"material":0}]},{"primitives":[{"mode":4,"attributes":{"POSITION":80,"NORMAL":81,"TEXCOORD_0":82},"indices":83,"material":0}]},{"primitives":[{"mode":4,"attributes":{"POSITION":84,"NORMAL":85,"TEXCOORD_0":86},"indices":87,"material":0}]},{"primitives":[{"mode":4,"attributes":{"POSITION":88,"NORMAL":89,"TEXCOORD_0":90},"indices":91,"material":1}]}],"animations":[{"name":"enter","samplers":[{"input":92,"output":93,"interpolation":"LINEAR"},{"input":94,"output":95,"interpolation":"LINEAR"},{"input":96,"output":97,"interpolation":"LINEAR"}],"channels":[{"sampler":0,"target":{"node":22,"path":"translation"}},{"sampler":1,"target":{"node":25,"path":"rotation"}},{"sampler":2,"target":{"node":25,"path":"translation"}}]},{"name":"outer","samplers":[{"input":98,"output":99,"interpolation":"LINEAR"},{"input":100,"output":101,"interpolation":"LINEAR"},{"input":102,"output":103,"interpolation":"LINEAR"}],"channels":[{"sampler":0,"target":{"node":22,"path":"translation"}},{"sampler":1,"target":{"node":25,"path":"rotation"}},{"sampler":2,"target":{"node":25,"path":"translation"}}]}]}