# Made in Blockbench 5.0.5
mtllib room.mtl

o center
v -0.375 0.5 -0.25
v -0.375 0.5 -0.5
v -0.375 0 -0.25
v -0.375 0 -0.5
v -1.125 0.5 -0.25
v -1.125 0.5 -0.5
v -1.125 0 -0.25
v -1.125 0 -0.5
vt 1 1
vt 0 1
vt 0 0.5
vt 1 0.5
vt 1 0.5
vt 1 1
vt 0 1
vt 0 0.5
vt 0 0
vt 1 0
vt 1 1
vt 0 1
vt 1 0
vt 1 1
vt 0 1
vt 0 0
vt 1 0.5
vt 1 1
vt 0 1
vt 0 0.5
vt 1 1
vt 0 1
vt 0 0.5
vt 1 0.5
vn 1 0 0
vn -1 0 0
vn 0 1 0
vn 0 -1 0
vn 0 0 1
vn 0 0 -1
usemtl none
f 2/1/1 1/2/1 3/3/1 4/4/1
f 7/5/2 5/6/2 6/7/2 8/8/2
f 5/9/3 1/10/3 2/11/3 6/12/3
f 4/13/4 3/14/4 7/15/4 8/16/4
f 3/17/5 1/18/5 5/19/5 7/20/5
f 6/21/6 2/22/6 4/23/6 8/24/6
o right
v -0.37499999999999994 0.5 0.125
v -0.12499999999999994 0.5 0.125
v -0.37499999999999994 0 0.125
v -0.12499999999999994 0 0.125
v -0.37500000000000006 0.5 -0.5
v -0.12500000000000006 0.5 -0.5
v -0.37500000000000006 0 -0.5
v -0.12500000000000006 0 -0.5
vt 1 1
vt 0 1
vt 0 0.5
vt 1 0.5
vt 1 0.5
vt 1 1
vt 0 1
vt 0 0.5
vt 0 0
vt 1 0
vt 1 1
vt 0 1
vt 1 0
vt 1 1
vt 0 1
vt 0 0
vt 1 0.5
vt 1 1
vt 0 1
vt 0 0.5
vt 1 1
vt 0 1
vt 0 0.5
vt 1 0.5
vn 2.220446049250313e-16 0 1
vn -2.220446049250313e-16 0 -1
vn 0 1 0
vn 0 -1 0
vn -1 0 2.220446049250313e-16
vn 1 0 -2.220446049250313e-16
usemtl none
f 10/25/7 9/26/7 11/27/7 12/28/7
f 15/29/8 13/30/8 14/31/8 16/32/8
f 13/33/9 9/34/9 10/35/9 14/36/9
f 12/37/10 11/38/10 15/39/10 16/40/10
f 11/41/11 9/42/11 13/43/11 15/44/11
f 14/45/12 10/46/12 12/47/12 16/48/12
o cuboid
v -0.3023570334313662 0.625 -0.46171648760454176
v -0.2271805835552979 0.625 -0.2232872499174851
v -0.3023570334313662 0.5 -0.46171648760454176
v -0.2271805835552979 0.5 -0.2232872499174851
v -0.21294606929872 0.625 -0.4899076563080674
v -0.13776961942265167 0.625 -0.2514784186210107
v -0.21294606929872 0.5 -0.4899076563080674
v -0.13776961942265167 0.5 -0.2514784186210107
vt 1 1
vt 0 1
vt 0 0.5
vt 1 0.5
vt 1 0.5
vt 1 1
vt 0 1
vt 0 0.5
vt 0 0
vt 1 0
vt 1 1
vt 0 1
vt 1 0
vt 1 1
vt 0 1
vt 0 0
vt 1 0.5
vt 1 1
vt 0 1
vt 0 0.5
vt 1 1
vt 0 1
vt 0 0.5
vt 1 0.5
vn -0.9537169507482268 0 0.3007057995042734
vn 0.9537169507482268 0 -0.3007057995042734
vn 0 1 0
vn 0 -1 0
vn -0.3007057995042734 0 -0.9537169507482268
vn 0.3007057995042734 0 0.9537169507482268
usemtl none
f 18/49/13 17/50/13 19/51/13 20/52/13
f 23/53/14 21/54/14 22/55/14 24/56/14
f 21/57/15 17/58/15 18/59/15 22/60/15
f 20/61/16 19/62/16 23/63/16 24/64/16
f 19/65/17 17/66/17 21/67/17 23/68/17
f 22/69/18 18/70/18 20/71/18 24/72/18
o cuboid
v -0.32968600114156105 0.49687499999999996 -0.42599308526125457
v -0.2733036637345098 0.49687499999999996 -0.24717115699596212
v -0.27007869171979687 0.49687499999999996 -0.44478719773027164
v -0.21369635431274564 0.49687499999999996 -0.2659652694649792
v -0.32968600114156105 0.528125 -0.42599308526125457
v -0.2733036637345098 0.528125 -0.24717115699596212
v -0.27007869171979687 0.528125 -0.44478719773027164
v -0.21369635431274564 0.528125 -0.2659652694649792
vt 1 1
vt 0 1
vt 0 0.5
vt 1 0.5
vt 1 0.5
vt 1 1
vt 0 1
vt 0 0.5
vt 0 0
vt 1 0
vt 1 1
vt 0 1
vt 1 0
vt 1 1
vt 0 1
vt 0 0
vt 1 0.5
vt 1 1
vt 0 1
vt 0 0.5
vt 1 1
vt 0 1
vt 0 0.5
vt 1 0.5
vn 5.007757533719404e-17 -1 1.5882577765439675e-16
vn -5.007757533719404e-17 1 -1.5882577765439675e-16
vn -0.9537169507482268 -1.660790105850696e-16 0.3007057995042734
vn 0.9537169507482268 1.660790105850696e-16 -0.3007057995042734
vn -0.3007057995042733 -2.9399458319977384e-16 -0.9537169507482268
vn 0.3007057995042733 2.9399458319977384e-16 0.9537169507482268
usemtl none
f 26/73/19 25/74/19 27/75/19 28/76/19
f 31/77/20 29/78/20 30/79/20 32/80/20
f 29/81/21 25/82/21 26/83/21 30/84/21
f 28/85/22 27/86/22 31/87/22 32/88/22
f 27/89/23 25/90/23 29/91/23 31/92/23
f 30/93/24 26/94/24 28/95/24 32/96/24
o cuboid
v -0.2498237821235554 0.6625 -0.32433510696888357
v -0.2253914359138332 0.6625 -0.24684560472059017
v -0.2498237821235554 0.6 -0.32433510696888357
v -0.2253914359138332 0.6 -0.24684560472059017
v -0.22002012741267335 0.6625 -0.3337321632033921
v -0.19558778120295114 0.6625 -0.25624266095509873
v -0.22002012741267335 0.6 -0.3337321632033921
v -0.19558778120295114 0.6 -0.25624266095509873
vt 0.0625 1
vt 0 1
vt 0 0.9375
vt 0.0625 0.9375
vt 0.0625 0.9375
vt 0.0625 1
vt 0 1
vt 0 0.9375
vt 0 0.9375
vt 0.0625 0.9375
vt 0.0625 1
vt 0 1
vt 0.0625 0.9375
vt 0.0625 1
vt 0 1
vt 0 0.9375
vt 0.0625 0.9375
vt 0.0625 1
vt 0 1
vt 0 0.9375
vt 0.0625 1
vt 0 1
vt 0 0.9375
vt 0.0625 0.9375
vn -0.9537169507482268 0 0.3007057995042734
vn 0.9537169507482268 0 -0.3007057995042734
vn 0 1 0
vn 0 -1 0
vn -0.3007057995042734 0 -0.9537169507482268
vn 0.3007057995042734 0 0.9537169507482268
usemtl none
f 34/97/25 33/98/25 35/99/25 36/100/25
f 39/101/26 37/102/26 38/103/26 40/104/26
f 37/105/27 33/106/27 34/107/27 38/108/27
f 36/109/28 35/110/28 39/111/28 40/112/28
f 35/113/29 33/114/29 37/115/29 39/116/29
f 38/117/30 34/118/30 36/119/30 40/120/30
o cylinder
v -0.3828176671400938 0.4975 -0.3194750560969497
v -0.3828176671400938 0.50375 -0.3194750560969497
v -0.38352310159918407 0.4975 -0.3033142111472092
v -0.38352310159918407 0.50375 -0.3033142111472092
v -0.37534844396577155 0.4975 -0.3051268118767178
v -0.37534844396577155 0.50375 -0.3051268118767178
v -0.3691748573789522 0.4975 -0.31078343432153144
v -0.3691748573789522 0.50375 -0.31078343432153144
v -0.3666568221903533 0.4975 -0.31876962163785943
v -0.3666568221903533 0.50375 -0.31876962163785943
v -0.3684694229198619 0.4975 -0.32694427927127195
v -0.3684694229198619 0.50375 -0.32694427927127195
v -0.37412604536467553 0.4975 -0.3331178658580913
v -0.37412604536467553 0.50375 -0.3331178658580913
v -0.3821122326810035 0.4975 -0.3356359010466902
v -0.3821122326810035 0.50375 -0.3356359010466902
v -0.39028689031441605 0.4975 -0.3338233003171816
v -0.39028689031441605 0.50375 -0.3338233003171816
v -0.39646047690123537 0.4975 -0.328166677872368
v -0.39646047690123537 0.50375 -0.328166677872368
v -0.3989785120898343 0.4975 -0.32018049055604
v -0.3989785120898343 0.50375 -0.32018049055604
v -0.3971659113603257 0.4975 -0.31200583292262746
v -0.3971659113603257 0.50375 -0.31200583292262746
v -0.39150928891551207 0.4975 -0.30583224633580813
v -0.39150928891551207 0.50375 -0.30583224633580813
vt 0.03235 0.983825
vt 0.028019375 1
vt 0 0.983825
vt 0 0.9375
vt 0.01675 0.9375
vt 0.01675 1
vt 0 1
vt 0 0.9676475
vt 0.01617375 0.971983125
vt 0 1
vt 0.0323525 0.98382625
vt 0.028016875 1
vt 0 0.98382625
vt 0 0.9375
vt 0.01675 0.9375
vt 0.01675 1
vt 0 1
vt 0 0.96765
vt 0.016175 0.971980625
vt 0 1
vt 0.03125 0.98325
vt 0.03125 1
vt 0 0.991625
vt 0 0.9375
vt 0.01675 0.9375
vt 0.01675 1
vt 0 1
vt 0.03125 0.98325
vt 0.03125 1
vt 0 0.991625
vt 0 0.96765
vt 0.016175 0.971980625
vt 0 1
vt 0 0.9375
vt 0.01675 0.9375
vt 0.01675 1
vt 0 1
vt 0.0323525 0.98382625
vt 0.028016875 1
vt 0 0.98382625
vt 0 0.9676475
vt 0.01617375 0.971983125
vt 0 1
vt 0 0.9375
vt 0.01675 0.9375
vt 0.01675 1
vt 0 1
vt 0.03235 0.983825
vt 0.028019375 1
vt 0 0.983825
vt 0 0.96875
vt 0.01675 0.96875
vt 0.008375 1
vt 0 0.9375
vt 0.01675 0.9375
vt 0.01675 1
vt 0 1
vt 0.01675 1
vt 0 1
vt 0.008375 0.96875
vt 0 1
vt 0.00433125 0.983825
vt 0.03235 1
vt 0 0.9375
vt 0.01675 0.9375
vt 0.01675 1
vt 0 1
vt 0.01617375 1
vt 0 0.99566375
vt 0.01617375 0.9676475
vt 0 1
vt 0.00433625 0.98382625
vt 0.0323525 1
vt 0 0.9375
vt 0.01675 0.9375
vt 0.01675 1
vt 0 1
vt 0.016175 1
vt 0 0.99566875
vt 0.016175 0.96765
vt 0 1
vt 0 0.98325
vt 0.03125 0.991625
vt 0 0.9375
vt 0.01675 0.9375
vt 0.01675 1
vt 0 1
vt 0 1
vt 0 0.98325
vt 0.03125 0.991625
vt 0.016175 1
vt 0 0.99566875
vt 0.016175 0.96765
vt 0 0.9375
vt 0.01675 0.9375
vt 0.01675 1
vt 0 1
vt 0 1
vt 0.00433625 0.98382625
vt 0.0323525 1
vt 0.01617375 1
vt 0 0.99566375
vt 0.01617375 0.9676475
vt 0 0.9375
vt 0.01675 0.9375
vt 0.01675 1
vt 0 1
vt 0 1
vt 0.00433125 0.983825
vt 0.03235 1
vt 0.01675 1
vt 0 1
vt 0.008375 0.96875
vt 0 0.9375
vt 0.01675 0.9375
vt 0.01675 1
vt 0 1
vt 0 0.96875
vt 0.01675 0.96875
vt 0.008375 1
vn 0 -1 0
vn 0.21647635516105285 0 0.9762878610615754
vn 0 1 0
vn 0 -1 0
vn 0.6755624608555767 0 0.7373027610708898
vn 0 1 0
vn 0 -1 0
vn 0.9537169507482269 0 0.30070579950427306
vn 0 1 0
vn 0 -1 0
vn 0.9762878610615754 0 -0.21647635516105285
vn 0 1 0
vn 0 -1 0
vn 0.7373027610708898 0 -0.6755624608555767
vn 0 1 0
vn 0 -1 0
vn 0.30070579950427306 0 -0.9537169507482269
vn 0 1 0
vn 0 -1 0
vn -0.21647635516105285 0 -0.9762878610615754
vn 0 1 0
vn 0 -1 0
vn -0.6755624608555767 0 -0.7373027610708898
vn 0 1 0
vn 0 -1 0
vn -0.9537169507482269 0 -0.30070579950427306
vn 0 1 0
vn 0 -1 0
vn -0.9762878610615754 0 0.21647635516105285
vn 0 1 0
vn 0 -1 0
vn -0.7373027610708898 0 0.6755624608555767
vn 0 1 0
vn 0 -1 0
vn -0.30070579950427306 0 0.9537169507482269
vn 0 1 0
usemtl none
f 45/121/31 43/122/31 41/123/31
f 43/124/32 45/125/32 46/126/32 44/127/32
f 44/128/33 46/129/33 42/130/33
f 47/131/34 45/132/34 41/133/34
f 45/134/35 47/135/35 48/136/35 46/137/35
f 46/138/36 48/139/36 42/140/36
f 49/141/37 47/142/37 41/143/37
f 47/144/38 49/145/38 50/146/38 48/147/38
f 48/148/39 50/149/39 42/150/39
f 51/151/40 49/152/40 41/153/40
f 49/154/41 51/155/41 52/156/41 50/157/41
f 50/158/42 52/159/42 42/160/42
f 53/161/43 51/162/43 41/163/43
f 51/164/44 53/165/44 54/166/44 52/167/44
f 52/168/45 54/169/45 42/170/45
f 55/171/46 53/172/46 41/173/46
f 53/174/47 55/175/47 56/176/47 54/177/47
f 54/178/48 56/179/48 42/180/48
f 57/181/49 55/182/49 41/183/49
f 55/184/50 57/185/50 58/186/50 56/187/50
f 56/188/51 58/189/51 42/190/51
f 59/191/52 57/192/52 41/193/52
f 57/194/53 59/195/53 60/196/53 58/197/53
f 58/198/54 60/199/54 42/200/54
f 61/201/55 59/202/55 41/203/55
f 59/204/56 61/205/56 62/206/56 60/207/56
f 60/208/57 62/209/57 42/210/57
f 63/211/58 61/212/58 41/213/58
f 61/214/59 63/215/59 64/216/59 62/217/59
f 62/218/60 64/219/60 42/220/60
f 65/221/61 63/222/61 41/223/61
f 63/224/62 65/225/62 66/226/62 64/227/62
f 64/228/63 66/229/63 42/230/63
f 43/231/64 65/232/64 41/233/64
f 65/234/65 43/235/65 44/236/65 66/237/65
f 66/238/66 44/239/66 42/240/66
o cylinder
v -0.39785295711530744 0.4975 -0.2717892085595384
v -0.39785295711530744 0.50375 -0.2717892085595384
v -0.3985583915743977 0.4975 -0.2556283636097979
v -0.3985583915743977 0.50375 -0.2556283636097979
v -0.3903837339409852 0.4975 -0.2574409643393065
v -0.3903837339409852 0.50375 -0.2574409643393065
v -0.38421014735416587 0.4975 -0.26309758678412015
v -0.38421014735416587 0.50375 -0.26309758678412015
v -0.3816921121655669 0.4975 -0.27108377410044815
v -0.3816921121655669 0.50375 -0.27108377410044815
v -0.38350471289507554 0.4975 -0.27925843173386067
v -0.38350471289507554 0.50375 -0.27925843173386067
v -0.38916133533988917 0.4975 -0.28543201832068
v -0.38916133533988917 0.50375 -0.28543201832068
v -0.39714752265621717 0.4975 -0.28795005350927894
v -0.39714752265621717 0.50375 -0.28795005350927894
v -0.4053221802896297 0.4975 -0.2861374527797703
v -0.4053221802896297 0.50375 -0.2861374527797703
v -0.411495766876449 0.4975 -0.2804808303349567
v -0.411495766876449 0.50375 -0.2804808303349567
v -0.41401380206504795 0.4975 -0.2724946430186287
v -0.41401380206504795 0.50375 -0.2724946430186287
v -0.41220120133553934 0.4975 -0.26431998538521617
v -0.41220120133553934 0.50375 -0.26431998538521617
v -0.4065445788907257 0.4975 -0.25814639879839685
v -0.4065445788907257 0.50375 -0.25814639879839685
vt 0.03235 0.983825
vt 0.028019375 1
vt 0 0.983825
vt 0 0.9375
vt 0.01675 0.9375
vt 0.01675 1
vt 0 1
vt 0 0.9676475
vt 0.01617375 0.971983125
vt 0 1
vt 0.0323525 0.98382625
vt 0.028016875 1
vt 0 0.98382625
vt 0 0.9375
vt 0.01675 0.9375
vt 0.01675 1
vt 0 1
vt 0 0.96765
vt 0.016175 0.971980625
vt 0 1
vt 0.03125 0.98325
vt 0.03125 1
vt 0 0.991625
vt 0 0.9375
vt 0.01675 0.9375
vt 0.01675 1
vt 0 1
vt 0.03125 0.98325
vt 0.03125 1
vt 0 0.991625
vt 0 0.96765
vt 0.016175 0.971980625
vt 0 1
vt 0 0.9375
vt 0.01675 0.9375
vt 0.01675 1
vt 0 1
vt 0.0323525 0.98382625
vt 0.028016875 1
vt 0 0.98382625
vt 0 0.9676475
vt 0.01617375 0.971983125
vt 0 1
vt 0 0.9375
vt 0.01675 0.9375
vt 0.01675 1
vt 0 1
vt 0.03235 0.983825
vt 0.028019375 1
vt 0 0.983825
vt 0 0.96875
vt 0.01675 0.96875
vt 0.008375 1
vt 0 0.9375
vt 0.01675 0.9375
vt 0.01675 1
vt 0 1
vt 0.01675 1
vt 0 1
vt 0.008375 0.96875
vt 0 1
vt 0.00433125 0.983825
vt 0.03235 1
vt 0 0.9375
vt 0.01675 0.9375
vt 0.01675 1
vt 0 1
vt 0.01617375 1
vt 0 0.99566375
vt 0.01617375 0.9676475
vt 0 1
vt 0.00433625 0.98382625
vt 0.0323525 1
vt 0 0.9375
vt 0.01675 0.9375
vt 0.01675 1
vt 0 1
vt 0.016175 1
vt 0 0.99566875
vt 0.016175 0.96765
vt 0 1
vt 0 0.98325
vt 0.03125 0.991625
vt 0 0.9375
vt 0.01675 0.9375
vt 0.01675 1
vt 0 1
vt 0 1
vt 0 0.98325
vt 0.03125 0.991625
vt 0.016175 1
vt 0 0.99566875
vt 0.016175 0.96765
vt 0 0.9375
vt 0.01675 0.9375
vt 0.01675 1
vt 0 1
vt 0 1
vt 0.00433625 0.98382625
vt 0.0323525 1
vt 0.01617375 1
vt 0 0.99566375
vt 0.01617375 0.9676475
vt 0 0.9375
vt 0.01675 0.9375
vt 0.01675 1
vt 0 1
vt 0 1
vt 0.00433125 0.983825
vt 0.03235 1
vt 0.01675 1
vt 0 1
vt 0.008375 0.96875
vt 0 0.9375
vt 0.01675 0.9375
vt 0.01675 1
vt 0 1
vt 0 0.96875
vt 0.01675 0.96875
vt 0.008375 1
vn 0 -1 0
vn 0.21647635516105285 0 0.9762878610615754
vn 0 1 0
vn 0 -1 0
vn 0.6755624608555767 0 0.7373027610708898
vn 0 1 0
vn 0 -1 0
vn 0.9537169507482269 0 0.30070579950427306
vn 0 1 0
vn 0 -1 0
vn 0.9762878610615754 0 -0.21647635516105285
vn 0 1 0
vn 0 -1 0
vn 0.7373027610708898 0 -0.6755624608555767
vn 0 1 0
vn 0 -1 0
vn 0.30070579950427306 0 -0.9537169507482269
vn 0 1 0
vn 0 -1 0
vn -0.21647635516105285 0 -0.9762878610615754
vn 0 1 0
vn 0 -1 0
vn -0.6755624608555767 0 -0.7373027610708898
vn 0 1 0
vn 0 -1 0
vn -0.9537169507482269 0 -0.30070579950427306
vn 0 1 0
vn 0 -1 0
vn -0.9762878610615754 0 0.21647635516105285
vn 0 1 0
vn 0 -1 0
vn -0.7373027610708898 0 0.6755624608555767
vn 0 1 0
vn 0 -1 0
vn -0.30070579950427306 0 0.9537169507482269
vn 0 1 0
usemtl none
f 71/241/67 69/242/67 67/243/67
f 69/244/68 71/245/68 72/246/68 70/247/68
f 70/248/69 72/249/69 68/250/69
f 73/251/70 71/252/70 67/253/70
f 71/254/71 73/255/71 74/256/71 72/257/71
f 72/258/72 74/259/72 68/260/72
f 75/261/73 73/262/73 67/263/73
f 73/264/74 75/265/74 76/266/74 74/267/74
f 74/268/75 76/269/75 68/270/75
f 77/271/76 75/272/76 67/273/76
f 75/274/77 77/275/77 78/276/77 76/277/77
f 76/278/78 78/279/78 68/280/78
f 79/281/79 77/282/79 67/283/79
f 77/284/80 79/285/80 80/286/80 78/287/80
f 78/288/81 80/289/81 68/290/81
f 81/291/82 79/292/82 67/293/82
f 79/294/83 81/295/83 82/296/83 80/297/83
f 80/298/84 82/299/84 68/300/84
f 83/301/85 81/302/85 67/303/85
f 81/304/86 83/305/86 84/306/86 82/307/86
f 82/308/87 84/309/87 68/310/87
f 85/311/88 83/312/88 67/313/88
f 83/314/89 85/315/89 86/316/89 84/317/89
f 84/318/90 86/319/90 68/320/90
f 87/321/91 85/322/91 67/323/91
f 85/324/92 87/325/92 88/326/92 86/327/92
f 86/328/93 88/329/93 68/330/93
f 89/331/94 87/332/94 67/333/94
f 87/334/95 89/335/95 90/336/95 88/337/95
f 88/338/96 90/339/96 68/340/96
f 91/341/97 89/342/97 67/343/97
f 89/344/98 91/345/98 92/346/98 90/347/98
f 90/348/99 92/349/99 68/350/99
f 69/351/100 91/352/100 67/353/100
f 91/354/101 69/355/101 70/356/101 92/357/101
f 92/358/102 70/359/102 68/360/102
o cylinder
v -0.3232103577183296 0.4975 -0.3006809436279327
v -0.3232103577183296 0.50375 -0.3006809436279327
v -0.3239157921774199 0.4975 -0.28452009867819217
v -0.3239157921774199 0.50375 -0.28452009867819217
v -0.3157411345440074 0.4975 -0.2863326994077008
v -0.3157411345440074 0.50375 -0.2863326994077008
v -0.30956754795718805 0.4975 -0.2919893218525144
v -0.30956754795718805 0.50375 -0.2919893218525144
v -0.3070495127685891 0.4975 -0.2999755091688424
v -0.3070495127685891 0.50375 -0.2999755091688424
v -0.3088621134980977 0.4975 -0.30815016680225493
v -0.3088621134980977 0.50375 -0.30815016680225493
v -0.31451873594291135 0.4975 -0.31432375338907426
v -0.31451873594291135 0.50375 -0.31432375338907426
v -0.32250492325923935 0.4975 -0.3168417885776732
v -0.32250492325923935 0.50375 -0.3168417885776732
v -0.33067958089265187 0.4975 -0.3150291878481646
v -0.33067958089265187 0.50375 -0.3150291878481646
v -0.3368531674794712 0.4975 -0.30937256540335095
v -0.3368531674794712 0.50375 -0.30937256540335095
v -0.33937120266807014 0.4975 -0.30138637808702295
v -0.33937120266807014 0.50375 -0.30138637808702295
v -0.3375586019385615 0.4975 -0.29321172045361044
v -0.3375586019385615 0.50375 -0.29321172045361044
v -0.3319019794937479 0.4975 -0.2870381338667911
v -0.3319019794937479 0.50375 -0.2870381338667911
vt 0.03235 0.983825
vt 0.028019375 1
vt 0 0.983825
vt 0 0.9375
vt 0.01675 0.9375
vt 0.01675 1
vt 0 1
vt 0 0.9676475
vt 0.01617375 0.971983125
vt 0 1
vt 0.0323525 0.98382625
vt 0.028016875 1
vt 0 0.98382625
vt 0 0.9375
vt 0.01675 0.9375
vt 0.01675 1
vt 0 1
vt 0 0.96765
vt 0.016175 0.971980625
vt 0 1
vt 0.03125 0.98325
vt 0.03125 1
vt 0 0.991625
vt 0 0.9375
vt 0.01675 0.9375
vt 0.01675 1
vt 0 1
vt 0.03125 0.98325
vt 0.03125 1
vt 0 0.991625
vt 0 0.96765
vt 0.016175 0.971980625
vt 0 1
vt 0 0.9375
vt 0.01675 0.9375
vt 0.01675 1
vt 0 1
vt 0.0323525 0.98382625
vt 0.028016875 1
vt 0 0.98382625
vt 0 0.9676475
vt 0.01617375 0.971983125
vt 0 1
vt 0 0.9375
vt 0.01675 0.9375
vt 0.01675 1
vt 0 1
vt 0.03235 0.983825
vt 0.028019375 1
vt 0 0.983825
vt 0 0.96875
vt 0.01675 0.96875
vt 0.008375 1
vt 0 0.9375
vt 0.01675 0.9375
vt 0.01675 1
vt 0 1
vt 0.01675 1
vt 0 1
vt 0.008375 0.96875
vt 0 1
vt 0.00433125 0.983825
vt 0.03235 1
vt 0 0.9375
vt 0.01675 0.9375
vt 0.01675 1
vt 0 1
vt 0.01617375 1
vt 0 0.99566375
vt 0.01617375 0.9676475
vt 0 1
vt 0.00433625 0.98382625
vt 0.0323525 1
vt 0 0.9375
vt 0.01675 0.9375
vt 0.01675 1
vt 0 1
vt 0.016175 1
vt 0 0.99566875
vt 0.016175 0.96765
vt 0 1
vt 0 0.98325
vt 0.03125 0.991625
vt 0 0.9375
vt 0.01675 0.9375
vt 0.01675 1
vt 0 1
vt 0 1
vt 0 0.98325
vt 0.03125 0.991625
vt 0.016175 1
vt 0 0.99566875
vt 0.016175 0.96765
vt 0 0.9375
vt 0.01675 0.9375
vt 0.01675 1
vt 0 1
vt 0 1
vt 0.00433625 0.98382625
vt 0.0323525 1
vt 0.01617375 1
vt 0 0.99566375
vt 0.01617375 0.9676475
vt 0 0.9375
vt 0.01675 0.9375
vt 0.01675 1
vt 0 1
vt 0 1
vt 0.00433125 0.983825
vt 0.03235 1
vt 0.01675 1
vt 0 1
vt 0.008375 0.96875
vt 0 0.9375
vt 0.01675 0.9375
vt 0.01675 1
vt 0 1
vt 0 0.96875
vt 0.01675 0.96875
vt 0.008375 1
vn 0 -1 0
vn 0.21647635516105285 0 0.9762878610615754
vn 0 1 0
vn 0 -1 0
vn 0.6755624608555767 0 0.7373027610708898
vn 0 1 0
vn 0 -1 0
vn 0.9537169507482269 0 0.30070579950427306
vn 0 1 0
vn 0 -1 0
vn 0.9762878610615754 0 -0.21647635516105285
vn 0 1 0
vn 0 -1 0
vn 0.7373027610708898 0 -0.6755624608555767
vn 0 1 0
vn 0 -1 0
vn 0.30070579950427306 0 -0.9537169507482269
vn 0 1 0
vn 0 -1 0
vn -0.21647635516105285 0 -0.9762878610615754
vn 0 1 0
vn 0 -1 0
vn -0.6755624608555767 0 -0.7373027610708898
vn 0 1 0
vn 0 -1 0
vn -0.9537169507482269 0 -0.30070579950427306
vn 0 1 0
vn 0 -1 0
vn -0.9762878610615754 0 0.21647635516105285
vn 0 1 0
vn 0 -1 0
vn -0.7373027610708898 0 0.6755624608555767
vn 0 1 0
vn 0 -1 0
vn -0.30070579950427306 0 0.9537169507482269
vn 0 1 0
usemtl none
f 97/361/103 95/362/103 93/363/103
f 95/364/104 97/365/104 98/366/104 96/367/104
f 96/368/105 98/369/105 94/370/105
f 99/371/106 97/372/106 93/373/106
f 97/374/107 99/375/107 100/376/107 98/377/107
f 98/378/108 100/379/108 94/380/108
f 101/381/109 99/382/109 93/383/109
f 99/384/110 101/385/110 102/386/110 100/387/110
f 100/388/111 102/389/111 94/390/111
f 103/391/112 101/392/112 93/393/112
f 101/394/113 103/395/113 104/396/113 102/397/113
f 102/398/114 104/399/114 94/400/114
f 105/401/115 103/402/115 93/403/115
f 103/404/116 105/405/116 106/406/116 104/407/116
f 104/408/117 106/409/117 94/410/117
f 107/411/118 105/412/118 93/413/118
f 105/414/119 107/415/119 108/416/119 106/417/119
f 106/418/120 108/419/120 94/420/120
f 109/421/121 107/422/121 93/423/121
f 107/424/122 109/425/122 110/426/122 108/427/122
f 108/428/123 110/429/123 94/430/123
f 111/431/124 109/432/124 93/433/124
f 109/434/125 111/435/125 112/436/125 110/437/125
f 110/438/126 112/439/126 94/440/126
f 113/441/127 111/442/127 93/443/127
f 111/444/128 113/445/128 114/446/128 112/447/128
f 112/448/129 114/449/129 94/450/129
f 115/451/130 113/452/130 93/453/130
f 113/454/131 115/455/131 116/456/131 114/457/131
f 114/458/132 116/459/132 94/460/132
f 117/461/133 115/462/133 93/463/133
f 115/464/134 117/465/134 118/466/134 116/467/134
f 116/468/135 118/469/135 94/470/135
f 95/471/136 117/472/136 93/473/136
f 117/474/137 95/475/137 96/476/137 118/477/137
f 118/478/138 96/479/138 94/480/138
o cylinder
v -0.34861019553246575 0.4975 -0.2824762535999321
v -0.34861019553246575 0.50375 -0.2824762535999321
v -0.349315629991556 0.4975 -0.2663154086501916
v -0.349315629991556 0.50375 -0.2663154086501916
v -0.3411409723581435 0.4975 -0.2681280093797002
v -0.3411409723581435 0.50375 -0.2681280093797002
v -0.3349673857713242 0.4975 -0.27378463182451385
v -0.3349673857713242 0.50375 -0.27378463182451385
v -0.33244935058272523 0.4975 -0.28177081914084184
v -0.33244935058272523 0.50375 -0.28177081914084184
v -0.33426195131223385 0.4975 -0.28994547677425436
v -0.33426195131223385 0.50375 -0.28994547677425436
v -0.3399185737570475 0.4975 -0.2961190633610737
v -0.3399185737570475 0.50375 -0.2961190633610737
v -0.3479047610733755 0.4975 -0.29863709854967263
v -0.3479047610733755 0.50375 -0.29863709854967263
v -0.356079418706788 0.4975 -0.296824497820164
v -0.356079418706788 0.50375 -0.296824497820164
v -0.3622530052936073 0.4975 -0.2911678753753504
v -0.3622530052936073 0.50375 -0.2911678753753504
v -0.36477104048220627 0.4975 -0.2831816880590224
v -0.36477104048220627 0.50375 -0.2831816880590224
v -0.36295843975269765 0.4975 -0.27500703042560987
v -0.36295843975269765 0.50375 -0.27500703042560987
v -0.357301817307884 0.4975 -0.26883344383879054
v -0.357301817307884 0.50375 -0.26883344383879054
vt 0.03235 0.983825
vt 0.028019375 1
vt 0 0.983825
vt 0 0.9375
vt 0.01675 0.9375
vt 0.01675 1
vt 0 1
vt 0 0.9676475
vt 0.01617375 0.971983125
vt 0 1
vt 0.0323525 0.98382625
vt 0.028016875 1
vt 0 0.98382625
vt 0 0.9375
vt 0.01675 0.9375
vt 0.01675 1
vt 0 1
vt 0 0.96765
vt 0.016175 0.971980625
vt 0 1
vt 0.03125 0.98325
vt 0.03125 1
vt 0 0.991625
vt 0 0.9375
vt 0.01675 0.9375
vt 0.01675 1
vt 0 1
vt 0.03125 0.98325
vt 0.03125 1
vt 0 0.991625
vt 0 0.96765
vt 0.016175 0.971980625
vt 0 1
vt 0 0.9375
vt 0.01675 0.9375
vt 0.01675 1
vt 0 1
vt 0.0323525 0.98382625
vt 0.028016875 1
vt 0 0.98382625
vt 0 0.9676475
vt 0.01617375 0.971983125
vt 0 1
vt 0 0.9375
vt 0.01675 0.9375
vt 0.01675 1
vt 0 1
vt 0.03235 0.983825
vt 0.028019375 1
vt 0 0.983825
vt 0 0.96875
vt 0.01675 0.96875
vt 0.008375 1
vt 0 0.9375
vt 0.01675 0.9375
vt 0.01675 1
vt 0 1
vt 0.01675 1
vt 0 1
vt 0.008375 0.96875
vt 0 1
vt 0.00433125 0.983825
vt 0.03235 1
vt 0 0.9375
vt 0.01675 0.9375
vt 0.01675 1
vt 0 1
vt 0.01617375 1
vt 0 0.99566375
vt 0.01617375 0.9676475
vt 0 1
vt 0.00433625 0.98382625
vt 0.0323525 1
vt 0 0.9375
vt 0.01675 0.9375
vt 0.01675 1
vt 0 1
vt 0.016175 1
vt 0 0.99566875
vt 0.016175 0.96765
vt 0 1
vt 0 0.98325
vt 0.03125 0.991625
vt 0 0.9375
vt 0.01675 0.9375
vt 0.01675 1
vt 0 1
vt 0 1
vt 0 0.98325
vt 0.03125 0.991625
vt 0.016175 1
vt 0 0.99566875
vt 0.016175 0.96765
vt 0 0.9375
vt 0.01675 0.9375
vt 0.01675 1
vt 0 1
vt 0 1
vt 0.00433625 0.98382625
vt 0.0323525 1
vt 0.01617375 1
vt 0 0.99566375
vt 0.01617375 0.9676475
vt 0 0.9375
vt 0.01675 0.9375
vt 0.01675 1
vt 0 1
vt 0 1
vt 0.00433125 0.983825
vt 0.03235 1
vt 0.01675 1
vt 0 1
vt 0.008375 0.96875
vt 0 0.9375
vt 0.01675 0.9375
vt 0.01675 1
vt 0 1
vt 0 0.96875
vt 0.01675 0.96875
vt 0.008375 1
vn 0 -1 0
vn 0.21647635516105285 0 0.9762878610615754
vn 0 1 0
vn 0 -1 0
vn 0.6755624608555767 0 0.7373027610708898
vn 0 1 0
vn 0 -1 0
vn 0.9537169507482269 0 0.30070579950427306
vn 0 1 0
vn 0 -1 0
vn 0.9762878610615754 0 -0.21647635516105285
vn 0 1 0
vn 0 -1 0
vn 0.7373027610708898 0 -0.6755624608555767
vn 0 1 0
vn 0 -1 0
vn 0.30070579950427306 0 -0.9537169507482269
vn 0 1 0
vn 0 -1 0
vn -0.21647635516105285 0 -0.9762878610615754
vn 0 1 0
vn 0 -1 0
vn -0.6755624608555767 0 -0.7373027610708898
vn 0 1 0
vn 0 -1 0
vn -0.9537169507482269 0 -0.30070579950427306
vn 0 1 0
vn 0 -1 0
vn -0.9762878610615754 0 0.21647635516105285
vn 0 1 0
vn 0 -1 0
vn -0.7373027610708898 0 0.6755624608555767
vn 0 1 0
vn 0 -1 0
vn -0.30070579950427306 0 0.9537169507482269
vn 0 1 0
usemtl none
f 123/481/139 121/482/139 119/483/139
f 121/484/140 123/485/140 124/486/140 122/487/140
f 122/488/141 124/489/141 120/490/141
f 125/491/142 123/492/142 119/493/142
f 123/494/143 125/495/143 126/496/143 124/497/143
f 124/498/144 126/499/144 120/500/144
f 127/501/145 125/502/145 119/503/145
f 125/504/146 127/505/146 128/506/146 126/507/146
f 126/508/147 128/509/147 120/510/147
f 129/511/148 127/512/148 119/513/148
f 127/514/149 129/515/149 130/516/149 128/517/149
f 128/518/150 130/519/150 120/520/150
f 131/521/151 129/522/151 119/523/151
f 129/524/152 131/525/152 132/526/152 130/527/152
f 130/528/153 132/529/153 120/530/153
f 133/531/154 131/532/154 119/533/154
f 131/534/155 133/535/155 134/536/155 132/537/155
f 132/538/156 134/539/156 120/540/156
f 135/541/157 133/542/157 119/543/157
f 133/544/158 135/545/158 136/546/158 134/547/158
f 134/548/159 136/549/159 120/550/159
f 137/551/160 135/552/160 119/553/160
f 135/554/161 137/555/161 138/556/161 136/557/161
f 136/558/162 138/559/162 120/560/162
f 139/561/163 137/562/163 119/563/163
f 137/564/164 139/565/164 140/566/164 138/567/164
f 138/568/165 140/569/165 120/570/165
f 141/571/166 139/572/166 119/573/166
f 139/574/167 141/575/167 142/576/167 140/577/167
f 140/578/168 142/579/168 120/580/168
f 143/581/169 141/582/169 119/583/169
f 141/584/170 143/585/170 144/586/170 142/587/170
f 142/588/171 144/589/171 120/590/171
f 121/591/172 143/592/172 119/593/172
f 143/594/173 121/595/173 122/596/173 144/597/173
f 144/598/174 122/599/174 120/600/174
o cuboid
v 1.5265566588595902e-16 -0.12500000000000067 -0.49999999999999817
v 2.636779683484747e-16 1.8749999999999993 -0.5000000000000018
v -0.12499999999999985 -0.12500000000000067 -0.4999999999999983
v -0.12499999999999974 1.8749999999999993 -0.5000000000000018
v -2.636779683484747e-16 -0.12499999999999933 0.25000000000000183
v -1.5265566588595902e-16 1.8750000000000007 0.24999999999999828
v -0.12500000000000028 -0.12499999999999933 0.2500000000000017
v -0.12500000000000017 1.8750000000000007 0.24999999999999817
vt 1 1
vt 0 1
vt 0 0.5
vt 1 0.5
vt 1 0.5
vt 1 1
vt 0 1
vt 0 0.5
vt 0 0
vt 1 0
vt 1 1
vt 0 1
vt 1 0
vt 1 1
vt 0 1
vt 0 0
vt 1 0.5
vt 1 1
vt 0 1
vt 0 0.5
vt 1 1
vt 0 1
vt 0 0.5
vt 1 0.5
vn 4.996003610813204e-16 -1.7763568394002505e-15 -1
vn -4.996003610813204e-16 1.7763568394002505e-15 1
vn 1 -5.551115123125684e-17 5.551115123125784e-16
vn -1 5.551115123125684e-17 -5.551115123125784e-16
vn -8.874685183736383e-31 -1 1.7763568394002505e-15
vn 8.874685183736383e-31 1 -1.7763568394002505e-15
usemtl none
f 146/601/175 145/602/175 147/603/175 148/604/175
f 151/605/176 149/606/176 150/607/176 152/608/176
f 149/609/177 145/610/177 146/611/177 150/612/177
f 148/613/178 147/614/178 151/615/178 152/616/178
f 147/617/179 145/618/179 149/619/179 151/620/179
f 150/621/180 146/622/180 148/623/180 152/624/180
o cuboid
v -1.1249999999999998 -0.2500000000000009 -0.624999999999998
v -1.1249999999999998 1.8749999999999991 -0.6250000000000018
v -1.2499999999999998 -0.2500000000000009 -0.6249999999999982
v -1.2499999999999998 1.8749999999999991 -0.625000000000002
v -1.1250000000000002 -0.2499999999999991 0.25000000000000194
v -1.1250000000000002 1.8750000000000009 0.24999999999999817
v -1.2500000000000002 -0.2499999999999991 0.25000000000000183
v -1.2500000000000002 1.8750000000000009 0.24999999999999806
vt 1 1
vt 0 1
vt 0 0.5
vt 1 0.5
vt 1 0.5
vt 1 1
vt 0 1
vt 0 0.5
vt 0 0
vt 1 0
vt 1 1
vt 0 1
vt 1 0
vt 1 1
vt 0 1
vt 0 0
vt 1 0.5
vt 1 1
vt 0 1
vt 0 0.5
vt 1 1
vt 0 1
vt 0 0.5
vt 1 0.5
vn 4.996003610813204e-16 -1.7763568394002505e-15 -1
vn -4.996003610813204e-16 1.7763568394002505e-15 1
vn 1 -5.551115123125684e-17 5.551115123125784e-16
vn -1 5.551115123125684e-17 -5.551115123125784e-16
vn -8.874685183736383e-31 -1 1.7763568394002505e-15
vn 8.874685183736383e-31 1 -1.7763568394002505e-15
usemtl none
f 154/625/181 153/626/181 155/627/181 156/628/181
f 159/629/182 157/630/182 158/631/182 160/632/182
f 157/633/183 153/634/183 154/635/183 158/636/183
f 156/637/184 155/638/184 159/639/184 160/640/184
f 155/641/185 153/642/185 157/643/185 159/644/185
f 158/645/186 154/646/186 156/647/186 160/648/186
o cuboid
v -0.125 0 -0.49999999999999994
v -0.125 0.5 -0.5
v -0.125 0 -0.625
v -0.125 0.5 -0.625
v -1.125 0 -0.49999999999999994
v -1.125 0.5 -0.5
v -1.125 0 -0.625
v -1.125 0.5 -0.625
vt 1 1
vt 0 1
vt 0 0.5
vt 1 0.5
vt 1 0.5
vt 1 1
vt 0 1
vt 0 0.5
vt 0 0
vt 1 0
vt 1 1
vt 0 1
vt 1 0
vt 1 1
vt 0 1
vt 0 0
vt 1 0.5
vt 1 1
vt 0 1
vt 0 0.5
vt 1 1
vt 0 1
vt 0 0.5
vt 1 0.5
vn 1 0 0
vn -1 0 0
vn 0 2.220446049250313e-16 1
vn 0 -2.220446049250313e-16 -1
vn 0 -1 2.220446049250313e-16
vn 0 1 -2.220446049250313e-16
usemtl none
f 162/649/187 161/650/187 163/651/187 164/652/187
f 167/653/188 165/654/188 166/655/188 168/656/188
f 165/657/189 161/658/189 162/659/189 166/660/189
f 164/661/190 163/662/190 167/663/190 168/664/190
f 163/665/191 161/666/191 165/667/191 167/668/191
f 166/669/192 162/670/192 164/671/192 168/672/192
o cuboid
v 0.375 0 -0.4999999999999998
v 0.375 1.875 -0.5000000000000002
v 0.375 0 -0.6249999999999998
v 0.375 1.875 -0.6250000000000002
v -0.25 0 -0.4999999999999998
v -0.25 1.875 -0.5000000000000002
v -0.25 0 -0.6249999999999998
v -0.25 1.875 -0.6250000000000002
vt 1 1
vt 0 1
vt 0 0.5
vt 1 0.5
vt 1 0.5
vt 1 1
vt 0 1
vt 0 0.5
vt 0 0
vt 1 0
vt 1 1
vt 0 1
vt 1 0
vt 1 1
vt 0 1
vt 0 0
vt 1 0.5
vt 1 1
vt 0 1
vt 0 0.5
vt 1 1
vt 0 1
vt 0 0.5
vt 1 0.5
vn 1 0 0
vn -1 0 0
vn 0 2.220446049250313e-16 1
vn 0 -2.220446049250313e-16 -1
vn 0 -1 2.220446049250313e-16
vn 0 1 -2.220446049250313e-16
usemtl none
f 170/673/193 169/674/193 171/675/193 172/676/193
f 175/677/194 173/678/194 174/679/194 176/680/194
f 173/681/195 169/682/195 170/683/195 174/684/195
f 172/685/196 171/686/196 175/687/196 176/688/196
f 171/689/197 169/690/197 173/691/197 175/692/197
f 174/693/198 170/694/198 172/695/198 176/696/198
o cuboid
v -1 0 -0.4999999999999998
v -1 1.875 -0.5000000000000002
v -1 0 -0.6249999999999998
v -1 1.875 -0.6250000000000002
v -1.625 0 -0.4999999999999998
v -1.625 1.875 -0.5000000000000002
v -1.625 0 -0.6249999999999998
v -1.625 1.875 -0.6250000000000002
vt 1 1
vt 0 1
vt 0 0.5
vt 1 0.5
vt 1 0.5
vt 1 1
vt 0 1
vt 0 0.5
vt 0 0
vt 1 0
vt 1 1
vt 0 1
vt 1 0
vt 1 1
vt 0 1
vt 0 0
vt 1 0.5
vt 1 1
vt 0 1
vt 0 0.5
vt 1 1
vt 0 1
vt 0 0.5
vt 1 0.5
vn 1 0 0
vn -1 0 0
vn 0 2.220446049250313e-16 1
vn 0 -2.220446049250313e-16 -1
vn 0 -1 2.220446049250313e-16
vn 0 1 -2.220446049250313e-16
usemtl none
f 178/697/199 177/698/199 179/699/199 180/700/199
f 183/701/200 181/702/200 182/703/200 184/704/200
f 181/705/201 177/706/201 178/707/201 182/708/201
f 180/709/202 179/710/202 183/711/202 184/712/202
f 179/713/203 177/714/203 181/715/203 183/716/203
f 182/717/204 178/718/204 180/719/204 184/720/204
o cuboid
v -0.125 0.875 -0.4999999999999999
v -0.125 1.875 -0.5000000000000001
v -0.125 0.875 -0.6249999999999999
v -0.125 1.875 -0.6250000000000001
v -1.125 0.875 -0.4999999999999999
v -1.125 1.875 -0.5000000000000001
v -1.125 0.875 -0.6249999999999999
v -1.125 1.875 -0.6250000000000001
vt 1 1
vt 0 1
vt 0 0.5
vt 1 0.5
vt 1 0.5
vt 1 1
vt 0 1
vt 0 0.5
vt 0 0
vt 1 0
vt 1 1
vt 0 1
vt 1 0
vt 1 1
vt 0 1
vt 0 0
vt 1 0.5
vt 1 1
vt 0 1
vt 0 0.5
vt 1 1
vt 0 1
vt 0 0.5
vt 1 0.5
vn 1 0 0
vn -1 0 0
vn 0 2.220446049250313e-16 1
vn 0 -2.220446049250313e-16 -1
vn 0 -1 2.220446049250313e-16
vn 0 1 -2.220446049250313e-16
usemtl none
f 186/721/205 185/722/205 187/723/205 188/724/205
f 191/725/206 189/726/206 190/727/206 192/728/206
f 189/729/207 185/730/207 186/731/207 190/732/207
f 188/733/208 187/734/208 191/735/208 192/736/208
f 187/737/209 185/738/209 189/739/209 191/740/209
f 190/741/210 186/742/210 188/743/210 192/744/210
o cuboid
v 0.4375 -0.125 0.2500000000000002
v 0.4375 1.875 0.24999999999999978
v 0.4375 -0.125 0.12500000000000022
v 0.4375 1.875 0.12499999999999978
v -1.4375 -0.125 0.2500000000000002
v -1.4375 1.875 0.24999999999999978
v -1.4375 -0.125 0.12500000000000022
v -1.4375 1.875 0.12499999999999978
vt 1 1
vt 0 1
vt 0 0.5
vt 1 0.5
vt 1 0.5
vt 1 1
vt 0 1
vt 0 0.5
vt 0 0
vt 1 0
vt 1 1
vt 0 1
vt 1 0
vt 1 1
vt 0 1
vt 0 0
vt 1 0.5
vt 1 1
vt 0 1
vt 0 0.5
vt 1 1
vt 0 1
vt 0 0.5
vt 1 0.5
vn 1 0 0
vn -1 0 0
vn 0 2.220446049250313e-16 1
vn 0 -2.220446049250313e-16 -1
vn 0 -1 2.220446049250313e-16
vn 0 1 -2.220446049250313e-16
usemtl none
f 194/745/211 193/746/211 195/747/211 196/748/211
f 199/749/212 197/750/212 198/751/212 200/752/212
f 197/753/213 193/754/213 194/755/213 198/756/213
f 196/757/214 195/758/214 199/759/214 200/760/214
f 195/761/215 193/762/215 197/763/215 199/764/215
f 198/765/216 194/766/216 196/767/216 200/768/216
o floor
v 0.5 0.03125 0.25
v 0.5 0.03125 -0.625
v 0.5 -0.03125 0.25
v 0.5 -0.03125 -0.625
v -1.625 0.03125 0.25
v -1.625 0.03125 -0.625
v -1.625 -0.03125 0.25
v -1.625 -0.03125 -0.625
vt 1 1
vt 0 1
vt 0 0.5
vt 1 0.5
vt 1 0.5
vt 1 1
vt 0 1
vt 0 0.5
vt 0 0
vt 1 0
vt 1 1
vt 0 1
vt 1 0
vt 1 1
vt 0 1
vt 0 0
vt 1 0.5
vt 1 1
vt 0 1
vt 0 0.5
vt 1 1
vt 0 1
vt 0 0.5
vt 1 0.5
vn 1 0 0
vn -1 0 0
vn 0 1 0
vn 0 -1 0
vn 0 0 1
vn 0 0 -1
usemtl none
f 202/769/217 201/770/217 203/771/217 204/772/217
f 207/773/218 205/774/218 206/775/218 208/776/218
f 205/777/219 201/778/219 202/779/219 206/780/219
f 204/781/220 203/782/220 207/783/220 208/784/220
f 203/785/221 201/786/221 205/787/221 207/788/221
f 206/789/222 202/790/222 204/791/222 208/792/222
o antifloor
v 0.5 1.53125 0.1875
v 0.5 1.53125 -0.5625
v 0.5 1.46875 0.1875
v 0.5 1.46875 -0.5625
v -1.625 1.53125 0.1875
v -1.625 1.53125 -0.5625
v -1.625 1.46875 0.1875
v -1.625 1.46875 -0.5625
vt 1 1
vt 0 1
vt 0 0.5
vt 1 0.5
vt 1 0.5
vt 1 1
vt 0 1
vt 0 0.5
vt 0 0
vt 1 0
vt 1 1
vt 0 1
vt 1 0
vt 1 1
vt 0 1
vt 0 0
vt 1 0.5
vt 1 1
vt 0 1
vt 0 0.5
vt 1 1
vt 0 1
vt 0 0.5
vt 1 0.5
vn 1 0 0
vn -1 0 0
vn 0 1 0
vn 0 -1 0
vn 0 0 1
vn 0 0 -1
usemtl none
f 210/793/223 209/794/223 211/795/223 212/796/223
f 215/797/224 213/798/224 214/799/224 216/800/224
f 213/801/225 209/802/225 210/803/225 214/804/225
f 212/805/226 211/806/226 215/807/226 216/808/226
f 211/809/227 209/810/227 213/811/227 215/812/227
f 214/813/228 210/814/228 212/815/228 216/816/228