# Made in Blockbench 5.0.5
mtllib shop.mtl

o cuboid
v 0.59375 1.09375 0.03125
v 0.59375 1.09375 -0.03125
v 0.59375 0.03125 0.03125
v 0.59375 0.03125 -0.03125
v -0.59375 1.09375 0.03125
v -0.59375 1.09375 -0.03125
v -0.59375 0.03125 0.03125
v -0.59375 0.03125 -0.03125
vt 0.0625 1
vt 0 1
vt 0 0.9375
vt 0.0625 0.9375
vt 0.0625 0.9375
vt 0.0625 1
vt 0 1
vt 0 0.9375
vt 0 0.9375
vt 0.0625 0.9375
vt 0.0625 1
vt 0 1
vt 0.0625 0.9375
vt 0.0625 1
vt 0 1
vt 0 0.9375
vt 0.0625 0.9375
vt 0.0625 1
vt 0 1
vt 0 0.9375
vt 0.0625 1
vt 0 1
vt 0 0.9375
vt 0.0625 0.9375
vn 1 0 0
vn -1 0 0
vn 0 1 0
vn 0 -1 0
vn 0 0 1
vn 0 0 -1
usemtl none
f 2/1/1 1/2/1 3/3/1 4/4/1
f 7/5/2 5/6/2 6/7/2 8/8/2
f 5/9/3 1/10/3 2/11/3 6/12/3
f 4/13/4 3/14/4 7/15/4 8/16/4
f 3/17/5 1/18/5 5/19/5 7/20/5
f 6/21/6 2/22/6 4/23/6 8/24/6
o cuboid
v 0.40625 1.0625 0.025
v 0.40625 1.0625 -0.0375
v 0.40625 0.875 0.025
v 0.40625 0.875 -0.0375
v -0.40625 1.0625 0.025
v -0.40625 1.0625 -0.0375
v -0.40625 0.875 0.025
v -0.40625 0.875 -0.0375
vt 0.0625 1
vt 0 1
vt 0 0.9375
vt 0.0625 0.9375
vt 0.0625 0.9375
vt 0.0625 1
vt 0 1
vt 0 0.9375
vt 0 0.9375
vt 0.0625 0.9375
vt 0.0625 1
vt 0 1
vt 0.0625 0.9375
vt 0.0625 1
vt 0 1
vt 0 0.9375
vt 0.0625 0.9375
vt 0.0625 1
vt 0 1
vt 0 0.9375
vt 0.0625 1
vt 0 1
vt 0 0.9375
vt 0.0625 0.9375
vn 1 0 0
vn -1 0 0
vn 0 1 0
vn 0 -1 0
vn 0 0 1
vn 0 0 -1
usemtl none
f 10/25/7 9/26/7 11/27/7 12/28/7
f 15/29/8 13/30/8 14/31/8 16/32/8
f 13/33/9 9/34/9 10/35/9 14/36/9
f 12/37/10 11/38/10 15/39/10 16/40/10
f 11/41/11 9/42/11 13/43/11 15/44/11
f 14/45/12 10/46/12 12/47/12 16/48/12
o cuboid
v -0.159375 0.71875 0.025
v -0.159375 0.71875 -0.0375
v -0.159375 0.03125 0.025
v -0.159375 0.03125 -0.0375
v -0.503125 0.71875 0.025
v -0.503125 0.71875 -0.0375
v -0.503125 0.03125 0.025
v -0.503125 0.03125 -0.0375
vt 0.0625 1
vt 0 1
vt 0 0.9375
vt 0.0625 0.9375
vt 0.0625 0.9375
vt 0.0625 1
vt 0 1
vt 0 0.9375
vt 0 0.9375
vt 0.0625 0.9375
vt 0.0625 1
vt 0 1
vt 0.0625 0.9375
vt 0.0625 1
vt 0 1
vt 0 0.9375
vt 0.0625 0.9375
vt 0.0625 1
vt 0 1
vt 0 0.9375
vt 0.0625 1
vt 0 1
vt 0 0.9375
vt 0.0625 0.9375
vn 1 0 0
vn -1 0 0
vn 0 1 0
vn 0 -1 0
vn 0 0 1
vn 0 0 -1
usemtl none
f 18/49/13 17/50/13 19/51/13 20/52/13
f 23/53/14 21/54/14 22/55/14 24/56/14
f 21/57/15 17/58/15 18/59/15 22/60/15
f 20/61/16 19/62/16 23/63/16 24/64/16
f 19/65/17 17/66/17 21/67/17 23/68/17
f 22/69/18 18/70/18 20/71/18 24/72/18
o sphere
v -0.45625 0.375 -0.028125000000000004
v -0.45625 0.375 -0.071875
v -0.45331930570778456 0.3859375 -0.06894430570778459
v -0.4511738885844308 0.3939443057077846 -0.0609375
v -0.4503886114155692 0.396875 -0.049999999999999996
v -0.4511738885844308 0.3939443057077846 -0.03906250000000001
v -0.45331930570778456 0.3859375 -0.031055694292215403
v -0.4482431942922154 0.3830068057077846 -0.06894430570778459
v -0.44238180570778457 0.3888681942922154 -0.0609375
v -0.4402363885844308 0.3910136114155692 -0.05
v -0.44238180570778457 0.3888681942922154 -0.03906250000000001
v -0.4482431942922154 0.3830068057077846 -0.031055694292215403
v -0.4453125 0.37793069429221543 -0.06894430570778459
v -0.4373056942922154 0.3800761114155692 -0.060937500000000006
v -0.434375 0.3808613885844308 -0.05
v -0.4373056942922154 0.3800761114155692 -0.03906250000000001
v -0.4453125 0.3779306942922154 -0.031055694292215406
v -0.4453125 0.3720693057077846 -0.06894430570778459
v -0.4373056942922154 0.3699238885844308 -0.060937500000000006
v -0.434375 0.3691386114155692 -0.05
v -0.4373056942922154 0.3699238885844308 -0.039062500000000014
v -0.4453125 0.37206930570778457 -0.031055694292215406
v -0.4482431942922154 0.3669931942922154 -0.0689443057077846
v -0.44238180570778457 0.3611318057077846 -0.060937500000000006
v -0.4402363885844308 0.3589863885844308 -0.05000000000000001
v -0.44238180570778457 0.3611318057077846 -0.039062500000000014
v -0.4482431942922154 0.3669931942922154 -0.03105569429221541
v -0.45331930570778456 0.3640625 -0.0689443057077846
v -0.4511738885844308 0.3560556942922154 -0.060937500000000006
v -0.4503886114155692 0.353125 -0.05000000000000001
v -0.4511738885844308 0.3560556942922154 -0.039062500000000014
v -0.45331930570778456 0.3640625 -0.03105569429221541
v -0.45918069429221536 0.3640625 -0.0689443057077846
v -0.4613261114155692 0.3560556942922154 -0.060937500000000006
v -0.4621113885844308 0.353125 -0.05000000000000001
v -0.4613261114155692 0.3560556942922154 -0.039062500000000014
v -0.45918069429221536 0.3640625 -0.03105569429221541
v -0.4642568057077846 0.3669931942922154 -0.0689443057077846
v -0.4701181942922154 0.3611318057077846 -0.060937500000000006
v -0.47226361141556916 0.3589863885844308 -0.05000000000000001
v -0.4701181942922154 0.3611318057077846 -0.039062500000000014
v -0.4642568057077846 0.3669931942922154 -0.03105569429221541
v -0.4671875 0.3720693057077846 -0.06894430570778459
v -0.4751943057077846 0.3699238885844308 -0.060937500000000006
v -0.47812499999999997 0.3691386114155692 -0.05
v -0.4751943057077846 0.3699238885844308 -0.039062500000000014
v -0.4671875 0.37206930570778457 -0.031055694292215406
v -0.4671875 0.3779306942922154 -0.06894430570778459
v -0.4751943057077846 0.3800761114155692 -0.060937500000000006
v -0.47812499999999997 0.3808613885844308 -0.05
v -0.4751943057077846 0.3800761114155692 -0.03906250000000001
v -0.4671875 0.3779306942922154 -0.031055694292215406
v -0.4642568057077846 0.3830068057077846 -0.06894430570778459
v -0.4701181942922154 0.3888681942922154 -0.0609375
v -0.47226361141556916 0.3910136114155692 -0.05
v -0.4701181942922154 0.3888681942922154 -0.03906250000000001
v -0.4642568057077846 0.38300680570778456 -0.031055694292215403
v -0.4591806942922154 0.3859375 -0.06894430570778459
v -0.4613261114155692 0.3939443057077846 -0.0609375
v -0.4621113885844308 0.396875 -0.049999999999999996
v -0.4613261114155692 0.3939443057077846 -0.03906250000000001
v -0.4591806942922154 0.3859375 -0.031055694292215403
vt 4.544975507059235e-16 0.983824999999998
vt 0.008375000000000455 0.983824999999998
vt 0.004187500000000455 0.999999999999998
vt 0.0030625 0.999999999999998
vt 0 0.983824999999998
vt 0.014499999999999999 0.983824999999998
vt 0.0114375 0.999999999999998
vt 0.0011250000000009091 0.999999999999998
vt 9.08995101411847e-16 0.983824999999998
vt 0.01675000000000091 0.983824999999998
vt 0.01562500000000091 0.999999999999998
vt 9.08995101411847e-16 0.999999999999998
vt 0.0011250000000009091 0.983824999999998
vt 0.01562500000000091 0.983824999999998
vt 0.01675000000000091 0.999999999999998
vt 0 0.999999999999998
vt 0.0030625 0.983824999999998
vt 0.0114375 0.983824999999998
vt 0.014499999999999999 0.999999999999998
vt 0.008375000000000455 0.999999999999998
vt 4.544975507059235e-16 0.999999999999998
vt 0.004187500000000455 0.983824999999998
vt 4.544975507059235e-16 0.983824999999998
vt 0.008375000000000455 0.983824999999998
vt 0.004187500000000455 0.999999999999998
vt 0.0030625 0.999999999999998
vt 0 0.983824999999998
vt 0.014499999999999999 0.983824999999998
vt 0.0114375 0.999999999999998
vt 0.0011250000000009091 0.999999999999998
vt 9.08995101411847e-16 0.983824999999998
vt 0.01675000000000091 0.983824999999998
vt 0.01562500000000091 0.999999999999998
vt 9.08995101411847e-16 0.999999999999998
vt 0.0011250000000009091 0.983824999999998
vt 0.01562500000000091 0.983824999999998
vt 0.01675000000000091 0.999999999999998
vt 0 0.999999999999998
vt 0.0030625 0.983824999999998
vt 0.0114375 0.983824999999998
vt 0.014499999999999999 0.999999999999998
vt 0.008375000000000455 0.999999999999998
vt 4.544975507059235e-16 0.999999999999998
vt 0.004187500000000455 0.983824999999998
vt 4.544975507059235e-16 0.983824999999998
vt 0.008375000000000455 0.983824999999998
vt 0.004187500000000455 0.999999999999998
vt 0.0030625 0.999999999999998
vt 0 0.983824999999998
vt 0.014499999999999999 0.983824999999998
vt 0.0114375 0.999999999999998
vt 0.0011250000000009091 0.999999999999998
vt 9.08995101411847e-16 0.983824999999998
vt 0.01675000000000091 0.983824999999998
vt 0.01562500000000091 0.999999999999998
vt 9.08995101411847e-16 0.999999999999998
vt 0.0011250000000009091 0.983824999999998
vt 0.01562500000000091 0.983824999999998
vt 0.01675000000000091 0.999999999999998
vt 0 0.999999999999998
vt 0.0030625 0.983824999999998
vt 0.0114375 0.983824999999998
vt 0.014499999999999999 0.999999999999998
vt 0.008375000000000455 0.999999999999998
vt 4.544975507059235e-16 0.999999999999998
vt 0.004187500000000455 0.983824999999998
vt 4.544975507059235e-16 0.983824999999998
vt 0.008375000000000455 0.983824999999998
vt 0.004187500000000455 0.999999999999998
vt 0.0030625 0.999999999999998
vt 0 0.983824999999998
vt 0.014499999999999999 0.983824999999998
vt 0.0114375 0.999999999999998
vt 0.0011250000000009091 0.999999999999998
vt 9.08995101411847e-16 0.983824999999998
vt 0.01675000000000091 0.983824999999998
vt 0.01562500000000091 0.999999999999998
vt 9.08995101411847e-16 0.999999999999998
vt 0.0011250000000009091 0.983824999999998
vt 0.01562500000000091 0.983824999999998
vt 0.01675000000000091 0.999999999999998
vt 0 0.999999999999998
vt 0.0030625 0.983824999999998
vt 0.0114375 0.983824999999998
vt 0.014499999999999999 0.999999999999998
vt 0.008375000000000455 0.999999999999998
vt 4.544975507059235e-16 0.999999999999998
vt 0.004187500000000455 0.983824999999998
vt 4.544975507059235e-16 0.983824999999998
vt 0.008375000000000455 0.983824999999998
vt 0.004187500000000455 0.999999999999998
vt 0.0030625 0.999999999999998
vt 0 0.983824999999998
vt 0.014499999999999999 0.983824999999998
vt 0.0114375 0.999999999999998
vt 0.0011250000000009091 0.999999999999998
vt 9.08995101411847e-16 0.983824999999998
vt 0.01675000000000091 0.983824999999998
vt 0.01562500000000091 0.999999999999998
vt 9.08995101411847e-16 0.999999999999998
vt 0.0011250000000009091 0.983824999999998
vt 0.01562500000000091 0.983824999999998
vt 0.01675000000000091 0.999999999999998
vt 0 0.999999999999998
vt 0.0030625 0.983824999999998
vt 0.0114375 0.983824999999998
vt 0.014499999999999999 0.999999999999998
vt 0.008375000000000455 0.999999999999998
vt 4.544975507059235e-16 0.999999999999998
vt 0.004187500000000455 0.983824999999998
vt 4.544975507059235e-16 0.983824999999998
vt 0.008375000000000455 0.983824999999998
vt 0.004187500000000455 0.999999999999998
vt 0.0030625 0.999999999999998
vt 0 0.983824999999998
vt 0.014499999999999999 0.983824999999998
vt 0.0114375 0.999999999999998
vt 0.0011250000000009091 0.999999999999998
vt 9.08995101411847e-16 0.983824999999998
vt 0.01675000000000091 0.983824999999998
vt 0.01562500000000091 0.999999999999998
vt 9.08995101411847e-16 0.999999999999998
vt 0.0011250000000009091 0.983824999999998
vt 0.01562500000000091 0.983824999999998
vt 0.01675000000000091 0.999999999999998
vt 0 0.999999999999998
vt 0.0030625 0.983824999999998
vt 0.0114375 0.983824999999998
vt 0.014499999999999999 0.999999999999998
vt 0.008375000000000455 0.999999999999998
vt 4.544975507059235e-16 0.999999999999998
vt 0.004187500000000455 0.983824999999998
vt 4.544975507059235e-16 0.983824999999998
vt 0.008375000000000455 0.983824999999998
vt 0.004187500000000455 0.999999999999998
vt 0.0030625 0.999999999999998
vt 0 0.983824999999998
vt 0.014499999999999999 0.983824999999998
vt 0.0114375 0.999999999999998
vt 0.0011250000000009091 0.999999999999998
vt 9.08995101411847e-16 0.983824999999998
vt 0.01675000000000091 0.983824999999998
vt 0.01562500000000091 0.999999999999998
vt 9.08995101411847e-16 0.999999999999998
vt 0.0011250000000009091 0.983824999999998
vt 0.01562500000000091 0.983824999999998
vt 0.01675000000000091 0.999999999999998
vt 0 0.999999999999998
vt 0.0030625 0.983824999999998
vt 0.0114375 0.983824999999998
vt 0.014499999999999999 0.999999999999998
vt 0.008375000000000455 0.999999999999998
vt 4.544975507059235e-16 0.999999999999998
vt 0.004187500000000455 0.983824999999998
vt 4.544975507059235e-16 0.983824999999998
vt 0.008375000000000455 0.983824999999998
vt 0.004187500000000455 0.999999999999998
vt 0.0030625 0.999999999999998
vt 0 0.983824999999998
vt 0.014499999999999999 0.983824999999998
vt 0.0114375 0.999999999999998
vt 0.0011250000000009091 0.999999999999998
vt 9.08995101411847e-16 0.983824999999998
vt 0.01675000000000091 0.983824999999998
vt 0.01562500000000091 0.999999999999998
vt 9.08995101411847e-16 0.999999999999998
vt 0.0011250000000009091 0.983824999999998
vt 0.01562500000000091 0.983824999999998
vt 0.01675000000000091 0.999999999999998
vt 0 0.999999999999998
vt 0.0030625 0.983824999999998
vt 0.0114375 0.983824999999998
vt 0.014499999999999999 0.999999999999998
vt 0.008375000000000455 0.999999999999998
vt 4.544975507059235e-16 0.999999999999998
vt 0.004187500000000455 0.983824999999998
vt 4.544975507059235e-16 0.983824999999998
vt 0.008375000000000455 0.983824999999998
vt 0.004187500000000455 0.999999999999998
vt 0.0030625 0.999999999999998
vt 0 0.983824999999998
vt 0.014499999999999999 0.983824999999998
vt 0.0114375 0.999999999999998
vt 0.0011250000000009091 0.999999999999998
vt 9.08995101411847e-16 0.983824999999998
vt 0.01675000000000091 0.983824999999998
vt 0.01562500000000091 0.999999999999998
vt 9.08995101411847e-16 0.999999999999998
vt 0.0011250000000009091 0.983824999999998
vt 0.01562500000000091 0.983824999999998
vt 0.01675000000000091 0.999999999999998
vt 0 0.999999999999998
vt 0.0030625 0.983824999999998
vt 0.0114375 0.983824999999998
vt 0.014499999999999999 0.999999999999998
vt 0.008375000000000455 0.999999999999998
vt 4.544975507059235e-16 0.999999999999998
vt 0.004187500000000455 0.983824999999998
vt 4.544975507059235e-16 0.983824999999998
vt 0.008375000000000455 0.983824999999998
vt 0.004187500000000455 0.999999999999998
vt 0.0030625 0.999999999999998
vt 0 0.983824999999998
vt 0.014499999999999999 0.983824999999998
vt 0.0114375 0.999999999999998
vt 0.0011250000000009091 0.999999999999998
vt 9.08995101411847e-16 0.983824999999998
vt 0.01675000000000091 0.983824999999998
vt 0.01562500000000091 0.999999999999998
vt 9.08995101411847e-16 0.999999999999998
vt 0.0011250000000009091 0.983824999999998
vt 0.01562500000000091 0.983824999999998
vt 0.01675000000000091 0.999999999999998
vt 0 0.999999999999998
vt 0.0030625 0.983824999999998
vt 0.0114375 0.983824999999998
vt 0.014499999999999999 0.999999999999998
vt 0.008375000000000455 0.999999999999998
vt 4.544975507059235e-16 0.999999999999998
vt 0.004187500000000455 0.983824999999998
vt 4.544975507059235e-16 0.983824999999998
vt 0.008375000000000455 0.983824999999998
vt 0.004187500000000455 0.999999999999998
vt 0.0030625 0.999999999999998
vt 0 0.983824999999998
vt 0.014499999999999999 0.983824999999998
vt 0.0114375 0.999999999999998
vt 0.0011250000000009091 0.999999999999998
vt 9.08995101411847e-16 0.983824999999998
vt 0.01675000000000091 0.983824999999998
vt 0.01562500000000091 0.999999999999998
vt 9.08995101411847e-16 0.999999999999998
vt 0.0011250000000009091 0.983824999999998
vt 0.01562500000000091 0.983824999999998
vt 0.01675000000000091 0.999999999999998
vt 0 0.999999999999998
vt 0.0030625 0.983824999999998
vt 0.0114375 0.983824999999998
vt 0.014499999999999999 0.999999999999998
vt 0.008375000000000455 0.999999999999998
vt 4.544975507059235e-16 0.999999999999998
vt 0.004187500000000455 0.983824999999998
vt 4.544975507059235e-16 0.983824999999998
vt 0.008375000000000455 0.983824999999998
vt 0.004187500000000455 0.999999999999998
vt 0.0030625 0.999999999999998
vt 0 0.983824999999998
vt 0.014499999999999999 0.983824999999998
vt 0.0114375 0.999999999999998
vt 0.0011250000000009091 0.999999999999998
vt 9.08995101411847e-16 0.983824999999998
vt 0.01675000000000091 0.983824999999998
vt 0.01562500000000091 0.999999999999998
vt 9.08995101411847e-16 0.999999999999998
vt 0.0011250000000009091 0.983824999999998
vt 0.01562500000000091 0.983824999999998
vt 0.01675000000000091 0.999999999999998
vt 0 0.999999999999998
vt 0.0030625 0.983824999999998
vt 0.0114375 0.983824999999998
vt 0.014499999999999999 0.999999999999998
vt 0.008375000000000455 0.999999999999998
vt 4.544975507059235e-16 0.999999999999998
vt 0.004187500000000455 0.983824999999998
vn 0.12940952255126037 0.22414386804201347 -0.9659258262890683
vn 0.35355339059327356 0.6123724356957948 -0.7071067811865474
vn 0.4829629131445338 0.8365163037378082 -0.25881904510252096
vn 0.48296291314453443 0.8365163037378079 0.25881904510252085
vn 0.35355339059327384 0.6123724356957945 0.7071067811865476
vn 0.1294095225512604 0.22414386804201308 0.9659258262890685
vn 0.22414386804201328 0.12940952255126062 -0.9659258262890683
vn 0.6123724356957946 0.3535533905932736 -0.7071067811865476
vn 0.8365163037378079 0.4829629131445342 -0.25881904510252074
vn 0.8365163037378078 0.4829629131445343 0.2588190451025211
vn 0.6123724356957946 0.3535533905932739 0.7071067811865476
vn 0.22414386804201328 0.12940952255126018 0.9659258262890683
vn 0.2588190451025207 2.144786184852406e-16 -0.9659258262890683
vn 0.7071067811865476 1.570092458683775e-16 -0.7071067811865475
vn 0.9659258262890683 5.746937261686319e-17 -0.25881904510252124
vn 0.9659258262890683 -5.746937261686306e-17 0.2588190451025207
vn 0.7071067811865476 -1.570092458683775e-16 0.7071067811865475
vn 0.2588190451025207 -2.144786184852406e-16 0.9659258262890683
vn 0.22414386804201328 -0.12940952255126018 -0.9659258262890683
vn 0.6123724356957946 -0.35355339059327356 -0.7071067811865476
vn 0.836516303737808 -0.482962913144534 -0.25881904510252124
vn 0.8365163037378078 -0.48296291314453477 0.2588190451025206
vn 0.6123724356957946 -0.353553390593274 0.7071067811865474
vn 0.22414386804201328 -0.12940952255126062 0.9659258262890683
vn 0.12940952255126043 -0.22414386804201306 -0.9659258262890685
vn 0.3535533905932738 -0.6123724356957944 -0.7071067811865478
vn 0.48296291314453427 -0.8365163037378077 -0.25881904510252113
vn 0.48296291314453466 -0.8365163037378077 0.25881904510252096
vn 0.3535533905932741 -0.6123724356957948 0.7071067811865472
vn 0.1294095225512604 -0.22414386804201344 0.9659258262890683
vn 1.5319901320374332e-16 -0.2588190451025204 -0.9659258262890684
vn 4.715685660418226e-16 -0.7071067811865475 -0.7071067811865476
vn 0 -0.9659258262890682 -0.2588190451025214
vn 0 -0.9659258262890684 0.25881904510252046
vn 4.08390357818418e-16 -0.7071067811865477 0.7071067811865475
vn 1.5319901320374334e-16 -0.2588190451025209 0.9659258262890684
vn -0.12940952255126034 -0.22414386804201308 -0.9659258262890683
vn -0.3535533905932735 -0.6123724356957945 -0.7071067811865477
vn -0.48296291314453377 -0.8365163037378083 -0.2588190451025208
vn -0.482962913144534 -0.8365163037378082 0.2588190451025204
vn -0.3535533905932738 -0.6123724356957949 0.7071067811865471
vn -0.12940952255126034 -0.22414386804201353 0.9659258262890683
vn -0.22414386804201325 -0.12940952255126012 -0.9659258262890683
vn -0.6123724356957945 -0.3535533905932737 -0.7071067811865478
vn -0.8365163037378079 -0.482962913144534 -0.2588190451025209
vn -0.8365163037378078 -0.48296291314453427 0.2588190451025208
vn -0.6123724356957947 -0.3535533905932741 0.7071067811865474
vn -0.22414386804201325 -0.12940952255126056 0.9659258262890683
vn -0.2588190451025207 1.3787911188336887e-16 -0.9659258262890684
vn -0.7071067811865475 1.5700924586837754e-16 -0.7071067811865477
vn -0.9659258262890683 5.746937261686304e-17 -0.2588190451025206
vn -0.9659258262890684 -5.746937261686308e-17 0.25881904510252074
vn -0.7071067811865477 -3.6120442477758666e-16 0.7071067811865475
vn -0.25881904510252063 -2.910781250871123e-16 0.9659258262890684
vn -0.2241438680420133 0.12940952255126056 -0.9659258262890683
vn -0.6123724356957947 0.35355339059327384 -0.7071067811865475
vn -0.8365163037378083 0.4829629131445337 -0.2588190451025205
vn -0.836516303737808 0.48296291314453393 0.2588190451025208
vn -0.6123724356957949 0.3535533905932737 0.7071067811865474
vn -0.22414386804201328 0.12940952255126012 0.9659258262890683
vn -0.12940952255126037 0.2241438680420135 -0.9659258262890683
vn -0.3535533905932737 0.6123724356957947 -0.7071067811865475
vn -0.48296291314453405 0.836516303737808 -0.2588190451025209
vn -0.4829629131445346 0.8365163037378076 0.25881904510252135
vn -0.35355339059327406 0.6123724356957945 0.7071067811865474
vn -0.1294095225512604 0.2241438680420131 0.9659258262890685
vn 0 0.2588190451025209 -0.9659258262890684
vn 0 0.7071067811865477 -0.7071067811865474
vn 0 0.9659258262890682 -0.2588190451025209
vn 0 0.9659258262890683 0.2588190451025209
vn 0 0.7071067811865476 0.7071067811865476
vn 0 0.2588190451025204 0.9659258262890684
usemtl none
f 27/73/19 32/74/19 26/75/19
f 27/76/20 28/77/20 33/78/20 32/79/20
f 28/80/21 29/81/21 34/82/21 33/83/21
f 29/84/22 30/85/22 35/86/22 34/87/22
f 30/88/23 31/89/23 36/90/23 35/91/23
f 36/92/24 31/93/24 25/94/24
f 32/95/25 37/96/25 26/97/25
f 32/98/26 33/99/26 38/100/26 37/101/26
f 33/102/27 34/103/27 39/104/27 38/105/27
f 34/106/28 35/107/28 40/108/28 39/109/28
f 35/110/29 36/111/29 41/112/29 40/113/29
f 41/114/30 36/115/30 25/116/30
f 37/117/31 42/118/31 26/119/31
f 37/120/32 38/121/32 43/122/32 42/123/32
f 38/124/33 39/125/33 44/126/33 43/127/33
f 39/128/34 40/129/34 45/130/34 44/131/34
f 40/132/35 41/133/35 46/134/35 45/135/35
f 46/136/36 41/137/36 25/138/36
f 42/139/37 47/140/37 26/141/37
f 42/142/38 43/143/38 48/144/38 47/145/38
f 43/146/39 44/147/39 49/148/39 48/149/39
f 44/150/40 45/151/40 50/152/40 49/153/40
f 45/154/41 46/155/41 51/156/41 50/157/41
f 51/158/42 46/159/42 25/160/42
f 47/161/43 52/162/43 26/163/43
f 47/164/44 48/165/44 53/166/44 52/167/44
f 48/168/45 49/169/45 54/170/45 53/171/45
f 49/172/46 50/173/46 55/174/46 54/175/46
f 50/176/47 51/177/47 56/178/47 55/179/47
f 56/180/48 51/181/48 25/182/48
f 52/183/49 57/184/49 26/185/49
f 52/186/50 53/187/50 58/188/50 57/189/50
f 53/190/51 54/191/51 59/192/51 58/193/51
f 54/194/52 55/195/52 60/196/52 59/197/52
f 55/198/53 56/199/53 61/200/53 60/201/53
f 61/202/54 56/203/54 25/204/54
f 57/205/55 62/206/55 26/207/55
f 57/208/56 58/209/56 63/210/56 62/211/56
f 58/212/57 59/213/57 64/214/57 63/215/57
f 59/216/58 60/217/58 65/218/58 64/219/58
f 60/220/59 61/221/59 66/222/59 65/223/59
f 66/224/60 61/225/60 25/226/60
f 62/227/61 67/228/61 26/229/61
f 62/230/62 63/231/62 68/232/62 67/233/62
f 63/234/63 64/235/63 69/236/63 68/237/63
f 64/238/64 65/239/64 70/240/64 69/241/64
f 65/242/65 66/243/65 71/244/65 70/245/65
f 71/246/66 66/247/66 25/248/66
f 67/249/67 72/250/67 26/251/67
f 67/252/68 68/253/68 73/254/68 72/255/68
f 68/256/69 69/257/69 74/258/69 73/259/69
f 69/260/70 70/261/70 75/262/70 74/263/70
f 70/264/71 71/265/71 76/266/71 75/267/71
f 76/268/72 71/269/72 25/270/72
f 72/271/73 77/272/73 26/273/73
f 72/274/74 73/275/74 78/276/74 77/277/74
f 73/278/75 74/279/75 79/280/75 78/281/75
f 74/282/76 75/283/76 80/284/76 79/285/76
f 75/286/77 76/287/77 81/288/77 80/289/77
f 81/290/78 76/291/78 25/292/78
f 77/293/79 82/294/79 26/295/79
f 77/296/80 78/297/80 83/298/80 82/299/80
f 78/300/81 79/301/81 84/302/81 83/303/81
f 79/304/82 80/305/82 85/306/82 84/307/82
f 80/308/83 81/309/83 86/310/83 85/311/83
f 86/312/84 81/313/84 25/314/84
f 82/315/85 27/316/85 26/317/85
f 82/318/86 83/319/86 28/320/86 27/321/86
f 83/322/87 84/323/87 29/324/87 28/325/87
f 84/326/88 85/327/88 30/328/88 29/329/88
f 85/330/89 86/331/89 31/332/89 30/333/89
f 31/334/90 86/335/90 25/336/90
o cuboid
v 0.421875 0.71875 0.025
v 0.421875 0.71875 -0.0375
v 0.421875 0.40625 0.025
v 0.421875 0.40625 -0.0375
v 0.078125 0.71875 0.025
v 0.078125 0.71875 -0.0375
v 0.078125 0.40625 0.025
v 0.078125 0.40625 -0.0375
vt 0.0625 1
vt 0 1
vt 0 0.9375
vt 0.0625 0.9375
vt 0.0625 0.9375
vt 0.0625 1
vt 0 1
vt 0 0.9375
vt 0 0.9375
vt 0.0625 0.9375
vt 0.0625 1
vt 0 1
vt 0.0625 0.9375
vt 0.0625 1
vt 0 1
vt 0 0.9375
vt 0.0625 0.9375
vt 0.0625 1
vt 0 1
vt 0 0.9375
vt 0.0625 1
vt 0 1
vt 0 0.9375
vt 0.0625 0.9375
vn 1 0 0
vn -1 0 0
vn 0 1 0
vn 0 -1 0
vn 0 0 1
vn 0 0 -1
usemtl none
f 88/337/91 87/338/91 89/339/91 90/340/91
f 93/341/92 91/342/92 92/343/92 94/344/92
f 91/345/93 87/346/93 88/347/93 92/348/93
f 90/349/94 89/350/94 93/351/94 94/352/94
f 89/353/95 87/354/95 91/355/95 93/356/95
f 92/357/96 88/358/96 90/359/96 94/360/96
o cuboid
v 0.265625 0.71875 0.01875
v 0.265625 0.71875 -0.04375
v 0.265625 0.40625 0.01875
v 0.265625 0.40625 -0.04375
v 0.234375 0.71875 0.01875
v 0.234375 0.71875 -0.04375
v 0.234375 0.40625 0.01875
v 0.234375 0.40625 -0.04375
vt 0.0625 1
vt 0 1
vt 0 0.9375
vt 0.0625 0.9375
vt 0.0625 0.9375
vt 0.0625 1
vt 0 1
vt 0 0.9375
vt 0 0.9375
vt 0.0625 0.9375
vt 0.0625 1
vt 0 1
vt 0.0625 0.9375
vt 0.0625 1
vt 0 1
vt 0 0.9375
vt 0.0625 0.9375
vt 0.0625 1
vt 0 1
vt 0 0.9375
vt 0.0625 1
vt 0 1
vt 0 0.9375
vt 0.0625 0.9375
vn 1 0 0
vn -1 0 0
vn 0 1 0
vn 0 -1 0
vn 0 0 1
vn 0 0 -1
usemtl none
f 96/361/97 95/362/97 97/363/97 98/364/97
f 101/365/98 99/366/98 100/367/98 102/368/98
f 99/369/99 95/370/99 96/371/99 100/372/99
f 98/373/100 97/374/100 101/375/100 102/376/100
f 97/377/101 95/378/101 99/379/101 101/380/101
f 100/381/102 96/382/102 98/383/102 102/384/102
o cuboid
v 0.07812499999999997 0.578125 0.01875
v 0.07812499999999997 0.578125 -0.04375
v 0.421875 0.578125 0.01875
v 0.421875 0.578125 -0.04375
v 0.07812499999999997 0.546875 0.01875
v 0.07812499999999997 0.546875 -0.04375
v 0.421875 0.546875 0.01875
v 0.421875 0.546875 -0.04375
vt 0.0625 1
vt 0 1
vt 0 0.9375
vt 0.0625 0.9375
vt 0.0625 0.9375
vt 0.0625 1
vt 0 1
vt 0 0.9375
vt 0 0.9375
vt 0.0625 0.9375
vt 0.0625 1
vt 0 1
vt 0.0625 0.9375
vt 0.0625 1
vt 0 1
vt 0 0.9375
vt 0.0625 0.9375
vt 0.0625 1
vt 0 1
vt 0 0.9375
vt 0.0625 1
vt 0 1
vt 0 0.9375
vt 0.0625 0.9375
vn 2.220446049250313e-16 1 0
vn -2.220446049250313e-16 -1 0
vn -1 2.220446049250313e-16 0
vn 1 -2.220446049250313e-16 0
vn 0 0 1
vn 0 0 -1
usemtl none
f 104/385/103 103/386/103 105/387/103 106/388/103
f 109/389/104 107/390/104 108/391/104 110/392/104
f 107/393/105 103/394/105 104/395/105 108/396/105
f 106/397/106 105/398/106 109/399/106 110/400/106
f 105/401/107 103/402/107 107/403/107 109/404/107
f 108/405/108 104/406/108 106/407/108 110/408/108
o cuboid
v 0.07812499999999997 0.734375 0.01875
v 0.07812499999999997 0.734375 -0.04375
v 0.421875 0.734375 0.01875
v 0.421875 0.734375 -0.04375
v 0.07812499999999997 0.703125 0.01875
v 0.07812499999999997 0.703125 -0.04375
v 0.421875 0.703125 0.01875
v 0.421875 0.703125 -0.04375
vt 0.0625 1
vt 0 1
vt 0 0.9375
vt 0.0625 0.9375
vt 0.0625 0.9375
vt 0.0625 1
vt 0 1
vt 0 0.9375
vt 0 0.9375
vt 0.0625 0.9375
vt 0.0625 1
vt 0 1
vt 0.0625 0.9375
vt 0.0625 1
vt 0 1
vt 0 0.9375
vt 0.0625 0.9375
vt 0.0625 1
vt 0 1
vt 0 0.9375
vt 0.0625 1
vt 0 1
vt 0 0.9375
vt 0.0625 0.9375
vn 2.220446049250313e-16 1 0
vn -2.220446049250313e-16 -1 0
vn -1 2.220446049250313e-16 0
vn 1 -2.220446049250313e-16 0
vn 0 0 1
vn 0 0 -1
usemtl none
f 112/409/109 111/410/109 113/411/109 114/412/109
f 117/413/110 115/414/110 116/415/110 118/416/110
f 115/417/111 111/418/111 112/419/111 116/420/111
f 114/421/112 113/422/112 117/423/112 118/424/112
f 113/425/113 111/426/113 115/427/113 117/428/113
f 116/429/114 112/430/114 114/431/114 118/432/114
o cuboid
v 0.07812499999999997 0.42187500000000006 0.01875
v 0.07812499999999997 0.42187500000000006 -0.04375
v 0.421875 0.42187499999999994 0.01875
v 0.421875 0.42187499999999994 -0.04375
v 0.07812499999999997 0.39062500000000006 0.01875
v 0.07812499999999997 0.39062500000000006 -0.04375
v 0.421875 0.39062499999999994 0.01875
v 0.421875 0.39062499999999994 -0.04375
vt 0.0625 1
vt 0 1
vt 0 0.9375
vt 0.0625 0.9375
vt 0.0625 0.9375
vt 0.0625 1
vt 0 1
vt 0 0.9375
vt 0 0.9375
vt 0.0625 0.9375
vt 0.0625 1
vt 0 1
vt 0.0625 0.9375
vt 0.0625 1
vt 0 1
vt 0 0.9375
vt 0.0625 0.9375
vt 0.0625 1
vt 0 1
vt 0 0.9375
vt 0.0625 1
vt 0 1
vt 0 0.9375
vt 0.0625 0.9375
vn 2.220446049250313e-16 1 0
vn -2.220446049250313e-16 -1 0
vn -1 2.220446049250313e-16 0
vn 1 -2.220446049250313e-16 0
vn 0 0 1
vn 0 0 -1
usemtl none
f 120/433/115 119/434/115 121/435/115 122/436/115
f 125/437/116 123/438/116 124/439/116 126/440/116
f 123/441/117 119/442/117 120/443/117 124/444/117
f 122/445/118 121/446/118 125/447/118 126/448/118
f 121/449/119 119/450/119 123/451/119 125/452/119
f 124/453/120 120/454/120 122/455/120 126/456/120
o cuboid
v 0.109375 0.71875 0.01875
v 0.109375 0.71875 -0.04375
v 0.109375 0.40625 0.01875
v 0.109375 0.40625 -0.04375
v 0.078125 0.71875 0.01875
v 0.078125 0.71875 -0.04375
v 0.078125 0.40625 0.01875
v 0.078125 0.40625 -0.04375
vt 0.0625 1
vt 0 1
vt 0 0.9375
vt 0.0625 0.9375
vt 0.0625 0.9375
vt 0.0625 1
vt 0 1
vt 0 0.9375
vt 0 0.9375
vt 0.0625 0.9375
vt 0.0625 1
vt 0 1
vt 0.0625 0.9375
vt 0.0625 1
vt 0 1
vt 0 0.9375
vt 0.0625 0.9375
vt 0.0625 1
vt 0 1
vt 0 0.9375
vt 0.0625 1
vt 0 1
vt 0 0.9375
vt 0.0625 0.9375
vn 1 0 0
vn -1 0 0
vn 0 1 0
vn 0 -1 0
vn 0 0 1
vn 0 0 -1
usemtl none
f 128/457/121 127/458/121 129/459/121 130/460/121
f 133/461/122 131/462/122 132/463/122 134/464/122
f 131/465/123 127/466/123 128/467/123 132/468/123
f 130/469/124 129/470/124 133/471/124 134/472/124
f 129/473/125 127/474/125 131/475/125 133/476/125
f 132/477/126 128/478/126 130/479/126 134/480/126
o cuboid
v 0.421875 0.71875 0.01875
v 0.421875 0.71875 -0.04375
v 0.421875 0.40625 0.01875
v 0.421875 0.40625 -0.04375
v 0.390625 0.71875 0.01875
v 0.390625 0.71875 -0.04375
v 0.390625 0.40625 0.01875
v 0.390625 0.40625 -0.04375
vt 0.0625 1
vt 0 1
vt 0 0.9375
vt 0.0625 0.9375
vt 0.0625 0.9375
vt 0.0625 1
vt 0 1
vt 0 0.9375
vt 0 0.9375
vt 0.0625 0.9375
vt 0.0625 1
vt 0 1
vt 0.0625 0.9375
vt 0.0625 1
vt 0 1
vt 0 0.9375
vt 0.0625 0.9375
vt 0.0625 1
vt 0 1
vt 0 0.9375
vt 0.0625 1
vt 0 1
vt 0 0.9375
vt 0.0625 0.9375
vn 1 0 0
vn -1 0 0
vn 0 1 0
vn 0 -1 0
vn 0 0 1
vn 0 0 -1
usemtl none
f 136/481/127 135/482/127 137/483/127 138/484/127
f 141/485/128 139/486/128 140/487/128 142/488/128
f 139/489/129 135/490/129 136/491/129 140/492/129
f 138/493/130 137/494/130 141/495/130 142/496/130
f 137/497/131 135/498/131 139/499/131 141/500/131
f 140/501/132 136/502/132 138/503/132 142/504/132