# Made in Blockbench 5.0.5
mtllib table.mtl

o right
v 0.5625000000000001 0.5 0.125
v 0.8125 0.5 0.125
v 0.5625000000000001 0 0.125
v 0.8125 0 0.125
v 0.5625 0.5 -0.5
v 0.8124999999999999 0.5 -0.5
v 0.5625 0 -0.5
v 0.8124999999999999 0 -0.5
vt 1 1
vt 0 1
vt 0 0.5
vt 1 0.5
vt 1 0.5
vt 1 1
vt 0 1
vt 0 0.5
vt 0 0
vt 1 0
vt 1 1
vt 0 1
vt 1 0
vt 1 1
vt 0 1
vt 0 0
vt 1 0.5
vt 1 1
vt 0 1
vt 0 0.5
vt 1 1
vt 0 1
vt 0 0.5
vt 1 0.5
vn 2.220446049250313e-16 0 1
vn -2.220446049250313e-16 0 -1
vn 0 1 0
vn 0 -1 0
vn -1 0 2.220446049250313e-16
vn 1 0 -2.220446049250313e-16
usemtl m_020fba42-c209-2669-5f36-ab81bd7f553a
f 2/1/1 1/2/1 3/3/1 4/4/1
f 7/5/2 5/6/2 6/7/2 8/8/2
f 5/9/3 1/10/3 2/11/3 6/12/3
f 4/13/4 3/14/4 7/15/4 8/16/4
f 3/17/5 1/18/5 5/19/5 7/20/5
f 6/21/6 2/22/6 4/23/6 8/24/6
o left
v -0.8124999999999999 0.5 0.125
v -0.5625 0.5 0.125
v -0.8124999999999999 0 0.125
v -0.5625 0 0.125
v -0.8125 0.5 -0.5
v -0.5625000000000001 0.5 -0.5
v -0.8125 0 -0.5
v -0.5625000000000001 0 -0.5
vt 0.046875 0.984375
vt 0.015625 0.984375
vt 0.015625 0.953125
vt 0.046875 0.953125
vt 0.109375 0.984375
vt 0.078125 0.984375
vt 0.078125 0.953125
vt 0.109375 0.953125
vt 0.171875 0.984375
vt 0.140625 0.984375
vt 0.140625 0.953125
vt 0.171875 0.953125
vt 0.234375 0.984375
vt 0.203125 0.984375
vt 0.203125 0.953125
vt 0.234375 0.953125
vt 0.296875 0.984375
vt 0.265625 0.984375
vt 0.265625 0.953125
vt 0.296875 0.953125
vt 0.359375 0.984375
vt 0.328125 0.984375
vt 0.328125 0.953125
vt 0.359375 0.953125
vn 2.220446049250313e-16 0 1
vn -2.220446049250313e-16 0 -1
vn 0 1 0
vn 0 -1 0
vn -1 0 2.220446049250313e-16
vn 1 0 -2.220446049250313e-16
usemtl m_020fba42-c209-2669-5f36-ab81bd7f553a
f 10/25/7 9/26/7 11/27/7 12/28/7
f 15/29/8 13/30/8 14/31/8 16/32/8
f 13/33/9 9/34/9 10/35/9 14/36/9
f 12/37/10 11/38/10 15/39/10 16/40/10
f 11/41/11 9/42/11 13/43/11 15/44/11
f 14/45/12 10/46/12 12/47/12 16/48/12
o center
v 0.5625 0.5 -0.25
v 0.5625 0.5 -0.5
v 0.5625 0 -0.25
v 0.5625 0 -0.5
v -0.5625 0.5 -0.25
v -0.5625 0.5 -0.5
v -0.5625 0 -0.25
v -0.5625 0 -0.5
vt 1 1
vt 0 1
vt 0 0.5
vt 1 0.5
vt 1 0.5
vt 1 1
vt 0 1
vt 0 0.5
vt 0 0
vt 1 0
vt 1 1
vt 0 1
vt 1 0
vt 1 1
vt 0 1
vt 0 0
vt 1 0.5
vt 1 1
vt 0 1
vt 0 0.5
vt 1 1
vt 0 1
vt 0 0.5
vt 1 0.5
vn 1 0 0
vn -1 0 0
vn 0 1 0
vn 0 -1 0
vn 0 0 1
vn 0 0 -1
usemtl m_020fba42-c209-2669-5f36-ab81bd7f553a
f 18/49/13 17/50/13 19/51/13 20/52/13
f 23/53/14 21/54/14 22/55/14 24/56/14
f 21/57/15 17/58/15 18/59/15 22/60/15
f 20/61/16 19/62/16 23/63/16 24/64/16
f 19/65/17 17/66/17 21/67/17 23/68/17
f 22/69/18 18/70/18 20/71/18 24/72/18
o cuboid
v 0.25321065149097877 0.4968749999999986 -0.3302758388407433
v 0.4294030178883371 0.49687500000000095 -0.2661470619671818
v 0.2745869104488326 0.49687499999999896 -0.38900662763986277
v 0.450779276846191 0.4968750000000013 -0.3248778507663012
v 0.2532106514909784 0.5281249999999986 -0.3302758388407433
v 0.42940301788833674 0.528125000000001 -0.2661470619671818
v 0.2745869104488322 0.528124999999999 -0.38900662763986277
v 0.45077927684619057 0.5281250000000013 -0.3248778507663012
vt 1 1
vt 0 1
vt 0 0.5
vt 1 0.5
vt 1 0.5
vt 1 1
vt 0 1
vt 0 0.5
vt 0 0
vt 1 0
vt 1 1
vt 0 1
vt 1 0
vt 1 1
vt 0 1
vt 0 0
vt 1 0.5
vt 1 1
vt 0 1
vt 0 0.5
vt 1 1
vt 0 1
vt 0 0.5
vt 1 0.5
vn 1.3407531323477614e-14 -1 -3.1854621056961453e-16
vn -1.3407531323477614e-14 1 3.1854621056961453e-16
vn -0.34202014332566144 -4.585006766834482e-15 0.9396926207859111
vn 0.34202014332566144 4.585006766834482e-15 -0.9396926207859111
vn -0.9396926207859111 -1.2272595063468543e-14 -0.3420201433256612
vn 0.9396926207859111 1.2272595063468543e-14 0.3420201433256612
usemtl m_020fba42-c209-2669-5f36-ab81bd7f553a
f 26/73/19 25/74/19 27/75/19 28/76/19
f 31/77/20 29/78/20 30/79/20 32/80/20
f 29/81/21 25/82/21 26/83/21 30/84/21
f 28/85/22 27/86/22 31/87/22 32/88/22
f 27/89/23 25/90/23 29/91/23 31/92/23
f 30/93/24 26/94/24 28/95/24 32/96/24
o cuboid
v 0.24150622818337075 0.625 -0.37370442631636913
v 0.47642938337984786 0.625 -0.288199390484952
v 0.24150622818337075 0.5 -0.37370442631636913
v 0.47642938337984786 0.5 -0.288199390484952
v 0.27357061662015214 0.625 -0.461800609515048
v 0.5084937718166292 0.625 -0.37629557368363087
v 0.27357061662015214 0.5 -0.461800609515048
v 0.5084937718166292 0.5 -0.37629557368363087
vt 1 1
vt 0 1
vt 0 0.5
vt 1 0.5
vt 1 0.5
vt 1 1
vt 0 1
vt 0 0.5
vt 0 0
vt 1 0
vt 1 1
vt 0 1
vt 1 0
vt 1 1
vt 0 1
vt 0 0
vt 1 0.5
vt 1 1
vt 0 1
vt 0 0.5
vt 1 1
vt 0 1
vt 0 0.5
vt 1 0.5
vn -0.34202014332566855 0 0.9396926207859085
vn 0.34202014332566855 0 -0.9396926207859085
vn 0 1 0
vn 0 -1 0
vn -0.9396926207859085 0 -0.34202014332566855
vn 0.9396926207859085 0 0.34202014332566855
usemtl m_020fba42-c209-2669-5f36-ab81bd7f553a
f 34/97/25 33/98/25 35/99/25 36/100/25
f 39/101/26 37/102/26 38/103/26 40/104/26
f 37/105/27 33/106/27 34/107/27 38/108/27
f 36/109/28 35/110/28 39/111/28 40/112/28
f 35/113/29 33/114/29 37/115/29 39/116/29
f 38/117/30 34/118/30 36/119/30 40/120/30
o circle
v 0.1670148044675343 0.500625 -0.28247625359993206
v 0.16630920895591847 0.500625 -0.2663154594298578
v 0.17448413791471584 0.500625 -0.2681277975475084
v 0.18065766500834216 0.500625 -0.27378479287703933
v 0.18317559863760854 0.500625 -0.28177065808831625
v 0.18136326051995796 0.500625 -0.2899455870471136
v 0.175706265190427 0.500625 -0.2961191141407399
v 0.16772039997915014 0.500625 -0.2986370477700063
v 0.15954547102035277 0.500625 -0.29682470965235574
v 0.15337194392672646 0.500625 -0.2911677143228248
v 0.15085401029746007 0.500625 -0.28318184911154787
v 0.15266634841511065 0.500625 -0.2750069201527505
v 0.1583233437446416 0.500625 -0.26883339305912424
vt 5.551115123125783e-17 0.48236248083238786
vt 0.25881875958380607 0.5517119783972586
vt 0 1
vt 0.5 0.73205
vt 0.5 1
vt 0 0.866025
vt 0.5176381947122913 0.7411815781880927
vt 0.44828743656363346 1
vt 0 0.7411815781880928
vt 0.5176375191676121 0.7411812404161939
vt 0.44828802160274145 1
vt 0 0.7411812404161939
vt 0.26795 1
vt 0 1
vt 0.133975 0.5
vt 0.2588184218119073 1
vt 0 0.9306492418513421
vt 0.2588184218119072 0.48236180528770867
vt 0.258818759583806 1
vt 0 0.9306505024351293
vt 0.25881875958380607 0.48236248083238786
vt 0 1
vt 0 0.73205
vt 0.5 0.866025
vt 0 1
vt 0.06935075814865788 0.7411815781880927
vt 0.5176381947122913 0.9999999999999999
vt 0 1
vt 0.06934949756487069 0.7411812404161939
vt 0.5176375191676121 1
vt 0 0.5
vt 0.26795 0.5
vt 0.133975 1
vt 0 0.48236180528770867
vt 0.2588184218119073 0.5517125634363665
vt 8.326672684688674e-17 1
vn 0 1 0
vn 0 1 0
vn 0 1 0
vn 0 1 0
vn 0 1 0
vn 0 1 0
vn 0 1 0
vn 0 1 0
vn 0 1 0
vn 0 1 0
vn 0 1 0
vn 0 1 0
usemtl m_020fba42-c209-2669-5f36-ab81bd7f553a
f 43/121/31 44/122/31 41/123/31
f 44/124/32 45/125/32 41/126/32
f 45/127/33 46/128/33 41/129/33
f 46/130/34 47/131/34 41/132/34
f 47/133/35 48/134/35 41/135/35
f 48/136/36 49/137/36 41/138/36
f 49/139/37 50/140/37 41/141/37
f 50/142/38 51/143/38 41/144/38
f 51/145/39 52/146/39 41/147/39
f 52/148/40 53/149/40 41/150/40
f 53/151/41 42/152/41 41/153/41
f 42/154/42 43/155/42 41/156/42
o circle
v 0.1328073328599062 0.500625 -0.3194750560969497
v 0.13210173734829037 0.500625 -0.30331426192687544
v 0.14027666630708774 0.500625 -0.305126600044526
v 0.14645019340071405 0.500625 -0.310783595374057
v 0.14896812702998044 0.500625 -0.3187694605853339
v 0.14715578891232986 0.500625 -0.32694438954413124
v 0.1414987935827989 0.500625 -0.3331179166377575
v 0.13351292837152204 0.500625 -0.33563585026702397
v 0.12533799941272467 0.500625 -0.3338235121493734
v 0.11916447231909837 0.500625 -0.32816651681984244
v 0.11664653868983195 0.500625 -0.3201806516085655
v 0.11845887680748253 0.500625 -0.31200572264976817
v 0.1241158721370135 0.500625 -0.3058321955561419
vt 5.551115123125783e-17 0.48236248083238786
vt 0.25881875958380607 0.5517119783972586
vt 0 1
vt 0.5 0.73205
vt 0.5 1
vt 0 0.866025
vt 0.5176381947122913 0.7411815781880927
vt 0.44828743656363346 1
vt 0 0.7411815781880928
vt 0.5176375191676121 0.7411812404161939
vt 0.44828802160274145 1
vt 0 0.7411812404161939
vt 0.26795 1
vt 0 1
vt 0.133975 0.5
vt 0.2588184218119073 1
vt 0 0.9306492418513421
vt 0.2588184218119072 0.48236180528770867
vt 0.258818759583806 1
vt 0 0.9306505024351293
vt 0.25881875958380607 0.48236248083238786
vt 0 1
vt 0 0.73205
vt 0.5 0.866025
vt 0 1
vt 0.06935075814865788 0.7411815781880927
vt 0.5176381947122913 0.9999999999999999
vt 0 1
vt 0.06934949756487069 0.7411812404161939
vt 0.5176375191676121 1
vt 0 0.5
vt 0.26795 0.5
vt 0.133975 1
vt 0 0.48236180528770867
vt 0.2588184218119073 0.5517125634363665
vt 8.326672684688674e-17 1
vn 0 1 0
vn 0 1 0
vn 0 1 0
vn 0 1 0
vn 0 1 0
vn 0 1 0
vn 0 1 0
vn 0 1 0
vn 0 1 0
vn 0 1 0
vn 0 1 0
vn 0 1 0
usemtl m_020fba42-c209-2669-5f36-ab81bd7f553a
f 56/157/43 57/158/43 54/159/43
f 57/160/44 58/161/44 54/162/44
f 58/163/45 59/164/45 54/165/45
f 59/166/46 60/167/46 54/168/46
f 60/169/47 61/170/47 54/171/47
f 61/172/48 62/173/48 54/174/48
f 62/175/49 63/176/49 54/177/49
f 63/178/50 64/179/50 54/180/50
f 64/181/51 65/182/51 54/183/51
f 65/184/52 66/185/52 54/186/52
f 66/187/53 55/188/53 54/189/53
f 55/190/54 56/191/54 54/192/54
o circle
v 0.19241464228167038 0.500625 -0.30068094362793263
v 0.19170904677005454 0.500625 -0.28452014945785836
v 0.19988397572885191 0.500625 -0.28633248757550894
v 0.20605750282247823 0.500625 -0.2919894829050399
v 0.20857543645174462 0.500625 -0.2999753481163168
v 0.20676309833409404 0.500625 -0.30815027707511417
v 0.20110610300456308 0.500625 -0.31432380416874045
v 0.19312023779328621 0.500625 -0.3168417377980069
v 0.18494530883448884 0.500625 -0.3150293996803563
v 0.17877178174086253 0.500625 -0.30937240435082536
v 0.17625384811159614 0.500625 -0.30138653913954844
v 0.17806618622924672 0.500625 -0.2932116101807511
v 0.18372318155877768 0.500625 -0.2870380830871248
vt 5.551115123125783e-17 0.48236248083238786
vt 0.25881875958380607 0.5517119783972586
vt 0 1
vt 0.5 0.73205
vt 0.5 1
vt 0 0.866025
vt 0.5176381947122913 0.7411815781880927
vt 0.44828743656363346 1
vt 0 0.7411815781880928
vt 0.5176375191676121 0.7411812404161939
vt 0.44828802160274145 1
vt 0 0.7411812404161939
vt 0.26795 1
vt 0 1
vt 0.133975 0.5
vt 0.2588184218119073 1
vt 0 0.9306492418513421
vt 0.2588184218119072 0.48236180528770867
vt 0.258818759583806 1
vt 0 0.9306505024351293
vt 0.25881875958380607 0.48236248083238786
vt 0 1
vt 0 0.73205
vt 0.5 0.866025
vt 0 1
vt 0.06935075814865788 0.7411815781880927
vt 0.5176381947122913 0.9999999999999999
vt 0 1
vt 0.06934949756487069 0.7411812404161939
vt 0.5176375191676121 1
vt 0 0.5
vt 0.26795 0.5
vt 0.133975 1
vt 0 0.48236180528770867
vt 0.2588184218119073 0.5517125634363665
vt 8.326672684688674e-17 1
vn 0 1 0
vn 0 1 0
vn 0 1 0
vn 0 1 0
vn 0 1 0
vn 0 1 0
vn 0 1 0
vn 0 1 0
vn 0 1 0
vn 0 1 0
vn 0 1 0
vn 0 1 0
usemtl m_020fba42-c209-2669-5f36-ab81bd7f553a
f 69/193/55 70/194/55 67/195/55
f 70/196/56 71/197/56 67/198/56
f 71/199/57 72/200/57 67/201/57
f 72/202/58 73/203/58 67/204/58
f 73/205/59 74/206/59 67/207/59
f 74/208/60 75/209/60 67/210/60
f 75/211/61 76/212/61 67/213/61
f 76/214/62 77/215/62 67/216/62
f 77/217/63 78/218/63 67/219/63
f 78/220/64 79/221/64 67/222/64
f 79/223/65 68/224/65 67/225/65
f 68/226/66 69/227/66 67/228/66
o circle
v 0.11777204288469253 0.500625 -0.27178920855953836
v 0.11706644737307671 0.500625 -0.2556284143894641
v 0.12524137633187407 0.500625 -0.2574407525071147
v 0.13141490342550038 0.500625 -0.26309774783664563
v 0.13393283705476677 0.500625 -0.27108361304792256
v 0.1321204989371162 0.500625 -0.2792585420067199
v 0.12646350360758524 0.500625 -0.2854320691003462
v 0.11847763839630837 0.500625 -0.28795000272961263
v 0.110302709437511 0.500625 -0.28613766461196205
v 0.1041291823438847 0.500625 -0.2804806692824311
v 0.10161124871461828 0.500625 -0.2724948040711542
v 0.10342358683226886 0.500625 -0.26431987511235683
v 0.10908058216179983 0.500625 -0.25814634801873054
vt 5.551115123125783e-17 0.48236248083238786
vt 0.25881875958380607 0.5517119783972586
vt 0 1
vt 0.5 0.73205
vt 0.5 1
vt 0 0.866025
vt 0.5176381947122913 0.7411815781880927
vt 0.44828743656363346 1
vt 0 0.7411815781880928
vt 0.5176375191676121 0.7411812404161939
vt 0.44828802160274145 1
vt 0 0.7411812404161939
vt 0.26795 1
vt 0 1
vt 0.133975 0.5
vt 0.2588184218119073 1
vt 0 0.9306492418513421
vt 0.2588184218119072 0.48236180528770867
vt 0.258818759583806 1
vt 0 0.9306505024351293
vt 0.25881875958380607 0.48236248083238786
vt 0 1
vt 0 0.73205
vt 0.5 0.866025
vt 0 1
vt 0.06935075814865788 0.7411815781880927
vt 0.5176381947122913 0.9999999999999999
vt 0 1
vt 0.06934949756487069 0.7411812404161939
vt 0.5176375191676121 1
vt 0 0.5
vt 0.26795 0.5
vt 0.133975 1
vt 0 0.48236180528770867
vt 0.2588184218119073 0.5517125634363665
vt 8.326672684688674e-17 1
vn 0 1 0
vn 0 1 0
vn 0 1 0
vn 0 1 0
vn 0 1 0
vn 0 1 0
vn 0 1 0
vn 0 1 0
vn 0 1 0
vn 0 1 0
vn 0 1 0
vn 0 1 0
usemtl m_020fba42-c209-2669-5f36-ab81bd7f553a
f 82/229/67 83/230/67 80/231/67
f 83/232/68 84/233/68 80/234/68
f 84/235/69 85/236/69 80/237/69
f 85/238/70 86/239/70 80/240/70
f 86/241/71 87/242/71 80/243/71
f 87/244/72 88/245/72 80/246/72
f 88/247/73 89/248/73 80/249/73
f 89/250/74 90/251/74 80/252/74
f 90/253/75 91/254/75 80/255/75
f 91/256/76 92/257/76 80/258/76
f 92/259/77 81/260/77 80/261/77
f 81/262/78 82/263/78 80/264/78